<svg width="129" height="43" viewBox="0 0 129 43" fill="none" xmlns="http://www.w3.org/2000/svg">
<rect width="129" height="43" fill="black"/>
<path d="M26.5577 22.3204C26.5708 21.3315 26.8398 20.3619 27.3399 19.5018C27.8399 18.6417 28.5546 17.919 29.4176 17.401C28.8694 16.6367 28.1461 16.0076 27.3054 15.5638C26.4646 15.1201 25.5294 14.8738 24.5741 14.8446C22.5362 14.6358 20.5606 16.0352 19.5221 16.0352C18.4636 16.0352 16.8647 14.8654 15.143 14.9C14.0294 14.9351 12.944 15.2513 11.9928 15.8177C11.0415 16.3841 10.2567 17.1814 9.71489 18.1319C7.36794 22.0991 9.11856 27.9295 11.3668 31.1363C12.4916 32.7066 13.8062 34.4606 15.5264 34.3984C17.2097 34.3302 17.8384 33.3505 19.8702 33.3505C21.8832 33.3505 22.473 34.3984 24.2281 34.3588C26.0343 34.3302 27.1723 32.7816 28.2577 31.1965C29.0659 30.0776 29.6878 28.841 30.1004 27.5325C29.051 27.0992 28.1555 26.3739 27.5255 25.447C26.8955 24.5201 26.559 23.4327 26.5577 22.3204Z" fill="white"/>
<path d="M23.243 12.7356C24.2278 11.5814 24.713 10.0978 24.5955 8.59998C23.0909 8.75427 21.7011 9.45632 20.7029 10.5663C20.2149 11.1085 19.8411 11.7393 19.603 12.4227C19.3648 13.106 19.267 13.8285 19.315 14.5488C20.0675 14.5564 20.8121 14.3971 21.4925 14.0831C22.1728 13.769 22.7714 13.3083 23.243 12.7356Z" fill="white"/>
<path d="M39.55 9.55157H41.7751C43.6978 9.55157 44.6332 10.6948 44.6332 12.7687C44.6332 14.8426 43.6884 16 41.7751 16H39.55V9.55157ZM40.6224 10.4539V15.0977H41.657C42.9325 15.0977 43.5325 14.3277 43.5325 12.7829C43.5325 11.2286 42.9278 10.4539 41.657 10.4539H40.6224ZM48.0251 10.9216C49.329 10.9216 50.2407 11.7672 50.2407 13.1703V13.8175C50.2407 15.2678 49.329 16.085 48.0251 16.085C46.7024 16.085 45.8001 15.2772 45.8001 13.8222V13.175C45.8001 11.8097 46.7165 10.9216 48.0251 10.9216ZM48.0298 11.7672C47.2834 11.7672 46.8583 12.3908 46.8583 13.2269V13.7844C46.8583 14.6206 47.2551 15.2394 48.0298 15.2394C48.7952 15.2394 49.1873 14.6253 49.1873 13.7844V13.2269C49.1873 12.3908 48.7763 11.7672 48.0298 11.7672ZM57.9411 11.0066L56.6277 16H55.5601L54.5161 12.3152H54.4877L53.4626 16H52.3902L51.0202 11.0066H52.1493L52.9524 14.8142H52.9996L54.0059 11.0066H54.9932L56.0278 14.8142H56.075L56.8923 11.0066H57.9411ZM58.9804 16V11.0066H60.0102V11.9042H60.0622C60.1897 11.5121 60.5535 10.931 61.5645 10.931C62.5707 10.931 63.2462 11.4885 63.2462 12.627V16H62.1975V12.934C62.1975 12.1735 61.8007 11.8239 61.2101 11.8239C60.4354 11.8239 60.0291 12.4191 60.0291 13.2269V16H58.9804ZM64.8335 16V9.21144H65.8823V16H64.8335ZM69.4821 10.9216C70.7859 10.9216 71.6977 11.7672 71.6977 13.1703V13.8175C71.6977 15.2678 70.7859 16.085 69.4821 16.085C68.1593 16.085 67.257 15.2772 67.257 13.8222V13.175C67.257 11.8097 68.1735 10.9216 69.4821 10.9216ZM69.4868 11.7672C68.7404 11.7672 68.3152 12.3908 68.3152 13.2269V13.7844C68.3152 14.6206 68.712 15.2394 69.4868 15.2394C70.2521 15.2394 70.6442 14.6253 70.6442 13.7844V13.2269C70.6442 12.3908 70.2332 11.7672 69.4868 11.7672ZM74.4141 16.0756C73.4456 16.0756 72.7795 15.4803 72.7795 14.5497C72.7795 13.6663 73.3937 13.071 74.5463 13.071H75.8077V12.6034C75.8077 12.0317 75.4439 11.7625 74.8676 11.7625C74.3007 11.7625 74.0456 11.9987 73.9653 12.3294H72.9685C73.0299 11.4932 73.6582 10.931 74.9006 10.931C75.9683 10.931 76.8517 11.3751 76.8517 12.6175V16H75.8549V15.3528H75.8077C75.5856 15.7354 75.151 16.0756 74.4141 16.0756ZM74.74 15.263C75.3353 15.263 75.8077 14.8568 75.8077 14.3135V13.7749H74.7117C74.1023 13.7749 73.833 14.082 73.833 14.4977C73.833 15.0174 74.2676 15.263 74.74 15.263ZM80.083 10.9405C80.7869 10.9405 81.3255 11.2523 81.5191 11.7577H81.5711V9.21144H82.6199V16H81.5994V15.2016H81.5475C81.3963 15.7071 80.7963 16.0661 80.0688 16.0661C78.9209 16.0661 78.1745 15.2489 78.1745 13.9308V13.0758C78.1745 11.7577 78.935 10.9405 80.083 10.9405ZM80.3759 11.8003C79.6767 11.8003 79.2421 12.3199 79.2421 13.2269V13.7749C79.2421 14.6867 79.6815 15.2063 80.3995 15.2063C81.1081 15.2063 81.5711 14.6914 81.5711 13.8411V13.0852C81.5711 12.3152 81.0656 11.8003 80.3759 11.8003ZM88.3786 10.9216C89.6824 10.9216 90.5942 11.7672 90.5942 13.1703V13.8175C90.5942 15.2678 89.6824 16.085 88.3786 16.085C87.0558 16.085 86.1535 15.2772 86.1535 13.8222V13.175C86.1535 11.8097 87.07 10.9216 88.3786 10.9216ZM88.3833 11.7672C87.6369 11.7672 87.2117 12.3908 87.2117 13.2269V13.7844C87.2117 14.6206 87.6085 15.2394 88.3833 15.2394C89.1486 15.2394 89.5407 14.6253 89.5407 13.7844V13.2269C89.5407 12.3908 89.1297 11.7672 88.3833 11.7672ZM91.9453 16V11.0066H92.9751V11.9042H93.0271C93.1546 11.5121 93.5184 10.931 94.5294 10.931C95.5356 10.931 96.2112 11.4885 96.2112 12.627V16H95.1624V12.934C95.1624 12.1735 94.7656 11.8239 94.1751 11.8239C93.4003 11.8239 92.994 12.4191 92.994 13.2269V16H91.9453ZM100.269 11.0397V9.7925H101.294V11.0397H102.414V11.8617H101.294V14.5119C101.294 15.0552 101.497 15.2063 102.06 15.2063C102.201 15.2063 102.39 15.1969 102.471 15.1875V15.9906C102.386 16.0047 102.036 16.0331 101.8 16.0331C100.586 16.0331 100.255 15.5984 100.255 14.5969V11.8617H99.4944V11.0397H100.269ZM103.737 16V9.21144H104.781V11.9042H104.833C104.941 11.5499 105.348 10.931 106.349 10.931C107.322 10.931 108.017 11.4932 108.017 12.6317V16H106.973V12.9388C106.973 12.1782 106.552 11.8239 105.957 11.8239C105.206 11.8239 104.781 12.4144 104.781 13.2269V16H103.737ZM111.536 16.085C110.176 16.085 109.33 15.2489 109.33 13.8411V13.1655C109.33 11.7483 110.256 10.9216 111.475 10.9216C112.727 10.9216 113.61 11.7908 113.61 13.1655V13.7513H110.369V13.997C110.369 14.715 110.795 15.2441 111.531 15.2441C112.079 15.2441 112.457 14.9843 112.528 14.6725H113.553C113.492 15.2489 112.883 16.085 111.536 16.085ZM110.369 13.0663H112.585V13.0002C112.585 12.249 112.146 11.7483 111.48 11.7483C110.813 11.7483 110.369 12.249 110.369 13.0002V13.0663Z" fill="white"/>
<path d="M41.0712 34H38.8887L43.3293 21.1031H45.7292L50.1604 34H47.8928L46.7496 30.4286H42.2239L41.0712 34ZM44.5387 23.3329H44.4537L42.7058 28.7846H46.2677L44.5387 23.3329ZM56.1839 34.1417C54.8895 34.1417 53.9069 33.5276 53.3778 32.6111H53.3022V37.3163H51.2047V24.0132H53.2455V25.4777H53.3211C53.8691 24.5234 54.8895 23.8809 56.2312 23.8809C58.4704 23.8809 60.0671 25.5722 60.0671 28.5578V29.4459C60.0671 32.4127 58.4893 34.1417 56.1839 34.1417ZM55.702 32.4127C57.0343 32.4127 57.9413 31.345 57.9413 29.3326V28.6334C57.9413 26.6965 57.0909 25.5911 55.6643 25.5911C54.1998 25.5911 53.2833 26.7815 53.2833 28.624V29.3326C53.2833 31.2222 54.2092 32.4127 55.702 32.4127ZM66.8465 34.1417C65.5521 34.1417 64.5695 33.5276 64.0404 32.6111H63.9648V37.3163H61.8673V24.0132H63.9081V25.4777H63.9837C64.5317 24.5234 65.5521 23.8809 66.8937 23.8809C69.133 23.8809 70.7297 25.5722 70.7297 28.5578V29.4459C70.7297 32.4127 69.1519 34.1417 66.8465 34.1417ZM66.3646 32.4127C67.6968 32.4127 68.6039 31.345 68.6039 29.3326V28.6334C68.6039 26.6965 67.7535 25.5911 66.3268 25.5911C64.8624 25.5911 63.9459 26.7815 63.9459 28.624V29.3326C63.9459 31.2222 64.8718 32.4127 66.3646 32.4127ZM75.0764 30.4191H77.1739C77.2684 31.534 78.251 32.4883 80.0745 32.4883C81.7468 32.4883 82.7389 31.7041 82.7389 30.4853C82.7389 29.5026 82.0775 28.9735 80.6981 28.6428L78.5817 28.1137C76.9188 27.7264 75.4259 26.7343 75.4259 24.6368C75.4259 22.1708 77.5801 20.8197 80.0839 20.8197C82.5877 20.8197 84.6758 22.1708 84.723 24.5801H82.6633C82.5688 23.4841 81.7279 22.5771 80.0556 22.5771C78.5817 22.5771 77.5801 23.2762 77.5801 24.4762C77.5801 25.3171 78.1659 25.9218 79.3659 26.1958L81.4728 26.7154C83.4097 27.1878 84.8836 28.1043 84.8836 30.2963C84.8836 32.8284 82.8334 34.2551 79.9139 34.2551C76.3235 34.2551 75.1236 32.1576 75.0764 30.4191ZM87.4396 24.0132V21.585H89.4993V24.0132H91.4457V25.695H89.4993V31.0238C89.4993 32.1104 89.9056 32.4127 91.03 32.4127C91.2095 32.4127 91.3795 32.4127 91.5024 32.3938V34C91.3323 34.0283 90.9355 34.0661 90.5103 34.0661C88.0821 34.0661 87.4113 33.1969 87.4113 31.1939V25.695H86.0318V24.0132H87.4396ZM97.1101 23.8431C99.9824 23.8431 101.541 25.8651 101.541 28.5862V29.3893C101.541 32.2048 99.9918 34.1701 97.1101 34.1701C94.2284 34.1701 92.66 32.2048 92.66 29.3893V28.5862C92.66 25.8745 94.2379 23.8431 97.1101 23.8431ZM97.1101 25.5249C95.5512 25.5249 94.7764 26.8004 94.7764 28.6145V29.3798C94.7764 31.1655 95.5417 32.4788 97.1101 32.4788C98.6785 32.4788 99.4344 31.175 99.4344 29.3798V28.6145C99.4344 26.791 98.6691 25.5249 97.1101 25.5249ZM103.313 34V24.0132H105.411V25.3265H105.486C105.741 24.7029 106.488 23.8715 107.877 23.8715C108.151 23.8715 108.387 23.8904 108.585 23.9282V25.78C108.406 25.7328 108.037 25.7044 107.688 25.7044C106.006 25.7044 105.439 26.7437 105.439 28.0854V34H103.313ZM113.673 34.1701C110.999 34.1701 109.299 32.4032 109.299 29.4459V28.435C109.299 25.6478 110.962 23.8431 113.588 23.8431C116.253 23.8431 117.859 25.7139 117.859 28.5295V29.4837H111.368V29.7199C111.368 31.4017 112.275 32.5166 113.702 32.5166C114.769 32.5166 115.497 31.9875 115.752 31.1277H117.746C117.443 32.7434 116.139 34.1701 113.673 34.1701ZM111.368 28.0193H115.809V28.0004C115.809 26.5831 114.93 25.4682 113.598 25.4682C112.247 25.4682 111.368 26.5831 111.368 28.0004V28.0193Z" fill="white"/>
</svg>
