<svg width="700" height="434" viewBox="0 0 700 434" fill="none" xmlns="http://www.w3.org/2000/svg">
<g opacity="0.3" filter="url(#filter0_f_292_205657)">
<ellipse cx="354.58" cy="195.841" rx="207.206" ry="88.3588" transform="rotate(10.3358 354.58 195.841)" fill="#41A23D"/>
</g>
<g opacity="0.3" filter="url(#filter1_f_292_205657)">
<ellipse cx="347.874" cy="160.703" rx="207.206" ry="88.3588" transform="rotate(10.3358 347.874 160.703)" fill="#41A23D"/>
</g>
<path d="M235.229 227.72C201.359 204.772 207.058 153.261 245.125 138.272L275.09 126.473C285.372 122.424 294.056 115.137 299.829 105.714L316.653 78.2533C338.026 43.368 389.744 46.7017 406.461 84.0422L419.825 113.895C423.691 122.53 429.889 129.917 437.722 135.224L467.308 155.269C500.671 177.873 495.755 228.449 458.663 244.205L425.997 258.081C416.676 262.04 408.748 268.692 403.23 277.184L383.892 306.944C361.934 340.736 311.273 336.794 294.806 300.012L280.204 267.395C276.338 258.759 270.14 251.373 262.307 246.066L235.229 227.72Z" fill="#8CD238" fill-opacity="0.08"/>
<path d="M229.39 190.767C204.18 158.545 225.387 111.257 266.216 108.652L298.355 106.602C309.384 105.898 319.883 101.623 328.265 94.4218L352.694 73.4363C383.727 46.7772 431.936 65.7966 436.408 106.463L439.984 138.975C441.018 148.38 444.654 157.31 450.484 164.761L472.506 192.907C497.339 224.647 477.163 271.284 437.027 274.917L401.681 278.117C391.595 279.03 382.01 282.933 374.156 289.326L346.63 311.73C315.374 337.169 268.357 317.894 263.952 277.836L260.046 242.313C259.011 232.908 255.375 223.978 249.545 216.527L229.39 190.767Z" fill="#8CD238" fill-opacity="0.12"/>
<path d="M238.251 145.265C227.056 105.915 264.531 70.1181 303.327 83.1042L333.867 93.3266C344.346 96.8342 355.682 96.8342 366.161 93.3266L396.701 83.1042C435.497 70.1181 472.973 105.915 461.777 145.265L452.826 176.725C450.237 185.825 450.237 195.467 452.826 204.567L462.606 238.94C473.634 277.701 437.359 313.285 398.817 301.513L364.874 291.145C355.188 288.187 344.84 288.187 335.154 291.145L301.211 301.513C262.669 313.285 226.394 277.701 237.422 238.94L247.202 204.567C249.791 195.467 249.791 185.825 247.202 176.725L238.251 145.265Z" fill="#8CD238" fill-opacity="0.16"/>
<defs>
<filter id="filter0_f_292_205657" x="6.70647" y="-42.1293" width="695.747" height="475.941" filterUnits="userSpaceOnUse" color-interpolation-filters="sRGB">
<feFlood flood-opacity="0" result="BackgroundImageFix"/>
<feBlend mode="normal" in="SourceGraphic" in2="BackgroundImageFix" result="shape"/>
<feGaussianBlur stdDeviation="71.7024" result="effect1_foregroundBlur_292_205657"/>
</filter>
<filter id="filter1_f_292_205657" x="-1.52588e-05" y="-77.2675" width="695.748" height="475.941" filterUnits="userSpaceOnUse" color-interpolation-filters="sRGB">
<feFlood flood-opacity="0" result="BackgroundImageFix"/>
<feBlend mode="normal" in="SourceGraphic" in2="BackgroundImageFix" result="shape"/>
<feGaussianBlur stdDeviation="71.7024" result="effect1_foregroundBlur_292_205657"/>
</filter>
</defs>
</svg>
