<svg width="1048" height="714" viewBox="0 0 1048 714" fill="none" xmlns="http://www.w3.org/2000/svg">
<path d="M409.664 412.22C355.025 375.201 364.218 292.104 425.628 267.923L473.968 248.889C490.555 242.357 504.565 230.602 513.877 215.401L541.018 171.101C575.496 114.825 658.927 120.203 685.894 180.44L707.454 228.599C713.691 242.529 723.689 254.445 736.325 263.006L784.053 295.343C837.874 331.808 829.944 413.397 770.107 438.814L717.411 461.198C702.373 467.586 689.585 478.316 680.683 492.016L649.487 540.024C614.064 594.538 532.338 588.178 505.774 528.842L482.217 476.223C475.981 462.293 465.983 450.377 453.347 441.816L409.664 412.22Z" fill="#FF8587" fill-opacity="0.08"/>
<path d="M400.244 352.611C359.576 300.631 393.787 224.347 459.652 220.144L511.499 216.836C529.29 215.701 546.227 208.804 559.749 197.188L599.157 163.334C649.22 120.328 726.991 151.01 734.205 216.613L739.973 269.061C741.641 284.232 747.507 298.638 756.912 310.659L792.437 356.064C832.498 407.266 799.95 482.501 735.204 488.362L678.183 493.524C661.912 494.997 646.451 501.293 633.779 511.607L589.375 547.748C538.953 588.786 463.106 557.692 455.999 493.071L449.698 435.765C448.029 420.593 442.163 406.188 432.758 394.167L400.244 352.611Z" fill="#FF8587" fill-opacity="0.12"/>
<path d="M414.54 279.207C396.479 215.728 456.935 157.98 519.521 178.929L568.787 195.42C585.692 201.078 603.979 201.078 620.884 195.42L670.15 178.929C732.736 157.98 793.192 215.728 775.131 279.207L760.691 329.957C756.514 344.638 756.514 360.192 760.691 374.872L776.468 430.322C794.259 492.852 735.74 550.256 673.564 531.265L618.808 514.54C603.183 509.768 586.488 509.768 570.863 514.54L516.107 531.265C453.931 550.256 395.412 492.852 413.203 430.322L428.98 374.872C433.157 360.192 433.157 344.637 428.98 329.957L414.54 279.207Z" fill="#FF8587" fill-opacity="0.16"/>
<g opacity="0.3" filter="url(#filter0_f_2115_722)">
<ellipse cx="528.582" cy="407.129" rx="308.887" ry="131.719" transform="rotate(10.3358 528.582 407.129)" fill="#FF8587"/>
</g>
<g opacity="0.3" filter="url(#filter1_f_2115_722)">
<ellipse cx="518.585" cy="354.748" rx="308.887" ry="131.719" transform="rotate(10.3358 518.585 354.748)" fill="#FF8587"/>
</g>
<defs>
<filter id="filter0_f_2115_722" x="9.99707" y="52.3809" width="1037.17" height="709.497" filterUnits="userSpaceOnUse" color-interpolation-filters="sRGB">
<feFlood flood-opacity="0" result="BackgroundImageFix"/>
<feBlend mode="normal" in="SourceGraphic" in2="BackgroundImageFix" result="shape"/>
<feGaussianBlur stdDeviation="106.889" result="effect1_foregroundBlur_2115_722"/>
</filter>
<filter id="filter1_f_2115_722" x="0" y="4.57764e-05" width="1037.17" height="709.497" filterUnits="userSpaceOnUse" color-interpolation-filters="sRGB">
<feFlood flood-opacity="0" result="BackgroundImageFix"/>
<feBlend mode="normal" in="SourceGraphic" in2="BackgroundImageFix" result="shape"/>
<feGaussianBlur stdDeviation="106.889" result="effect1_foregroundBlur_2115_722"/>
</filter>
</defs>
</svg>
