<svg width="1048" height="750" viewBox="0 0 1048 750" fill="none" xmlns="http://www.w3.org/2000/svg">
<g opacity="0.26">
<circle cx="92.1857" cy="92.1857" r="92.1857" transform="matrix(-0.981155 0.193223 0.193223 0.981155 645.365 304.965)" fill="url(#paint0_linear_2115_723)"/>
<circle cx="92.1857" cy="92.1857" r="92.1857" transform="matrix(-0.981155 0.193223 0.193223 0.981155 586.119 342.078)" fill="url(#paint1_linear_2115_723)"/>
<circle cx="92.1857" cy="92.1857" r="92.1857" transform="matrix(0.193223 0.981155 0.981155 -0.193223 391.46 446.967)" fill="url(#paint2_linear_2115_723)"/>
<circle cx="92.1857" cy="92.1857" r="92.1857" transform="matrix(0.946317 0.323242 0.323242 -0.946317 423.384 634.604)" fill="url(#paint3_linear_2115_723)"/>
<circle cx="92.1857" cy="92.1857" r="92.1857" transform="matrix(0.981155 -0.193223 -0.193223 -0.981155 537.616 697.116)" fill="url(#paint4_linear_2115_723)"/>
<circle cx="92.1857" cy="92.1857" r="92.1857" transform="matrix(0.897713 -0.440581 -0.440581 -0.897713 625.469 675.485)" fill="url(#paint5_linear_2115_723)"/>
<circle cx="92.1857" cy="92.1857" r="92.1857" transform="matrix(0.323242 -0.946317 -0.946317 -0.323242 737.5 598.185)" fill="url(#paint6_linear_2115_723)"/>
<circle cx="92.1857" cy="92.1857" r="92.1857" transform="matrix(-0.657913 -0.753094 -0.753094 0.657913 772.636 433.694)" fill="url(#paint7_linear_2115_723)"/>
</g>
<g opacity="0.26">
<circle cx="92.1857" cy="92.1857" r="92.1857" transform="matrix(-0.981155 0.193223 0.193223 0.981155 621.588 104.828)" fill="url(#paint8_linear_2115_723)"/>
<circle cx="92.1857" cy="92.1857" r="92.1857" transform="matrix(-0.981155 0.193223 0.193223 0.981155 562.343 141.941)" fill="url(#paint9_linear_2115_723)"/>
<circle cx="92.1857" cy="92.1857" r="92.1857" transform="matrix(0.193223 0.981155 0.981155 -0.193223 367.683 246.83)" fill="url(#paint10_linear_2115_723)"/>
<circle cx="92.1857" cy="92.1857" r="92.1857" transform="matrix(0.946317 0.323242 0.323242 -0.946317 399.608 434.466)" fill="url(#paint11_linear_2115_723)"/>
<circle cx="92.1857" cy="92.1857" r="92.1857" transform="matrix(0.981155 -0.193223 -0.193223 -0.981155 513.84 496.979)" fill="url(#paint12_linear_2115_723)"/>
<circle cx="92.1857" cy="92.1857" r="92.1857" transform="matrix(0.897713 -0.440581 -0.440581 -0.897713 601.692 475.349)" fill="url(#paint13_linear_2115_723)"/>
<circle cx="92.1857" cy="92.1857" r="92.1857" transform="matrix(0.323242 -0.946317 -0.946317 -0.323242 713.724 398.05)" fill="url(#paint14_linear_2115_723)"/>
<circle cx="92.1857" cy="92.1857" r="92.1857" transform="matrix(-0.657913 -0.753094 -0.753094 0.657913 748.859 233.558)" fill="url(#paint15_linear_2115_723)"/>
</g>
<g opacity="0.3" filter="url(#filter0_f_2115_723)">
<ellipse cx="528.582" cy="442.717" rx="308.887" ry="131.719" transform="rotate(10.3358 528.582 442.717)" fill="#4F7EFF"/>
</g>
<g opacity="0.3" filter="url(#filter1_f_2115_723)">
<ellipse cx="518.585" cy="390.336" rx="308.887" ry="131.719" transform="rotate(10.3358 518.585 390.336)" fill="#4F7EFF"/>
</g>
<defs>
<filter id="filter0_f_2115_723" x="9.99707" y="87.9688" width="1037.17" height="709.497" filterUnits="userSpaceOnUse" color-interpolation-filters="sRGB">
<feFlood flood-opacity="0" result="BackgroundImageFix"/>
<feBlend mode="normal" in="SourceGraphic" in2="BackgroundImageFix" result="shape"/>
<feGaussianBlur stdDeviation="106.889" result="effect1_foregroundBlur_2115_723"/>
</filter>
<filter id="filter1_f_2115_723" x="0" y="35.5879" width="1037.17" height="709.497" filterUnits="userSpaceOnUse" color-interpolation-filters="sRGB">
<feFlood flood-opacity="0" result="BackgroundImageFix"/>
<feBlend mode="normal" in="SourceGraphic" in2="BackgroundImageFix" result="shape"/>
<feGaussianBlur stdDeviation="106.889" result="effect1_foregroundBlur_2115_723"/>
</filter>
<linearGradient id="paint0_linear_2115_723" x1="-1.44646e-06" y1="86.1635" x2="180.634" y2="110.577" gradientUnits="userSpaceOnUse">
<stop stop-color="#4FAFFF"/>
<stop offset="1" stop-color="#36A4FE" stop-opacity="0"/>
</linearGradient>
<linearGradient id="paint1_linear_2115_723" x1="-1.44646e-06" y1="86.1635" x2="180.634" y2="110.577" gradientUnits="userSpaceOnUse">
<stop stop-color="#4F7EFF"/>
<stop offset="1" stop-color="#4F7EFF" stop-opacity="0"/>
</linearGradient>
<linearGradient id="paint2_linear_2115_723" x1="-1.44646e-06" y1="86.1635" x2="180.634" y2="110.577" gradientUnits="userSpaceOnUse">
<stop stop-color="#644FFF"/>
<stop offset="1" stop-color="#644FFF" stop-opacity="0"/>
</linearGradient>
<linearGradient id="paint3_linear_2115_723" x1="-1.44646e-06" y1="86.1636" x2="180.634" y2="110.577" gradientUnits="userSpaceOnUse">
<stop stop-color="#B64FFF"/>
<stop offset="1" stop-color="#B64FFF" stop-opacity="0"/>
</linearGradient>
<linearGradient id="paint4_linear_2115_723" x1="-1.44646e-06" y1="86.1635" x2="180.634" y2="110.577" gradientUnits="userSpaceOnUse">
<stop stop-color="#ED4FFF"/>
<stop offset="1" stop-color="#ED4FFF" stop-opacity="0"/>
</linearGradient>
<linearGradient id="paint5_linear_2115_723" x1="-4.47228e-08" y1="86.1635" x2="143.228" y2="134.065" gradientUnits="userSpaceOnUse">
<stop stop-color="#FF4FE2"/>
<stop offset="1" stop-color="#FF4FE2" stop-opacity="0"/>
</linearGradient>
<linearGradient id="paint6_linear_2115_723" x1="8.77499e-10" y1="86.1635" x2="154.924" y2="129.052" gradientUnits="userSpaceOnUse">
<stop stop-color="#FF4FBE"/>
<stop offset="1" stop-color="#FF4FBE" stop-opacity="0"/>
</linearGradient>
<linearGradient id="paint7_linear_2115_723" x1="-1.49657e-07" y1="86.1635" x2="113.699" y2="146.347" gradientUnits="userSpaceOnUse">
<stop stop-color="#FFC7F1"/>
<stop offset="1" stop-color="#FFC7F1" stop-opacity="0"/>
</linearGradient>
<linearGradient id="paint8_linear_2115_723" x1="-1.44646e-06" y1="86.1635" x2="180.634" y2="110.577" gradientUnits="userSpaceOnUse">
<stop stop-color="#4FAFFF"/>
<stop offset="1" stop-color="#36A4FE" stop-opacity="0"/>
</linearGradient>
<linearGradient id="paint9_linear_2115_723" x1="-1.44646e-06" y1="86.1635" x2="180.634" y2="110.577" gradientUnits="userSpaceOnUse">
<stop stop-color="#4F7EFF"/>
<stop offset="1" stop-color="#4F7EFF" stop-opacity="0"/>
</linearGradient>
<linearGradient id="paint10_linear_2115_723" x1="-1.44646e-06" y1="86.1635" x2="180.634" y2="110.577" gradientUnits="userSpaceOnUse">
<stop stop-color="#644FFF"/>
<stop offset="1" stop-color="#644FFF" stop-opacity="0"/>
</linearGradient>
<linearGradient id="paint11_linear_2115_723" x1="-1.44646e-06" y1="86.1636" x2="180.634" y2="110.577" gradientUnits="userSpaceOnUse">
<stop stop-color="#B64FFF"/>
<stop offset="1" stop-color="#B64FFF" stop-opacity="0"/>
</linearGradient>
<linearGradient id="paint12_linear_2115_723" x1="-1.44646e-06" y1="86.1635" x2="180.634" y2="110.577" gradientUnits="userSpaceOnUse">
<stop stop-color="#ED4FFF"/>
<stop offset="1" stop-color="#ED4FFF" stop-opacity="0"/>
</linearGradient>
<linearGradient id="paint13_linear_2115_723" x1="-4.47228e-08" y1="86.1635" x2="143.228" y2="134.065" gradientUnits="userSpaceOnUse">
<stop stop-color="#FF4FE2"/>
<stop offset="1" stop-color="#FF4FE2" stop-opacity="0"/>
</linearGradient>
<linearGradient id="paint14_linear_2115_723" x1="8.77499e-10" y1="86.1635" x2="154.924" y2="129.052" gradientUnits="userSpaceOnUse">
<stop stop-color="#FF4FBE"/>
<stop offset="1" stop-color="#FF4FBE" stop-opacity="0"/>
</linearGradient>
<linearGradient id="paint15_linear_2115_723" x1="-1.49657e-07" y1="86.1635" x2="113.699" y2="146.347" gradientUnits="userSpaceOnUse">
<stop stop-color="#FFC7F1"/>
<stop offset="1" stop-color="#FFC7F1" stop-opacity="0"/>
</linearGradient>
</defs>
</svg>
