<svg width="1048" height="714" viewBox="0 0 1048 714" fill="none" xmlns="http://www.w3.org/2000/svg">
<g opacity="0.26">
<circle cx="94.4732" cy="94.4732" r="94.4732" transform="matrix(-0.926393 0.376559 0.376559 0.926393 620.449 254.048)" fill="url(#paint0_linear_2115_721)"/>
<circle cx="94.4732" cy="94.4732" r="94.4732" transform="matrix(-0.926393 0.376559 0.376559 0.926393 568.088 302.949)" fill="url(#paint1_linear_2115_721)"/>
<circle cx="94.4733" cy="94.4733" r="94.4733" transform="matrix(0.376559 0.926393 0.926393 -0.376559 392.723 446.468)" fill="url(#paint2_linear_2115_721)"/>
<circle cx="94.4733" cy="94.4733" r="94.4733" transform="matrix(0.990559 0.137087 0.137087 -0.990559 461.466 629.009)" fill="url(#paint3_linear_2115_721)"/>
<circle cx="94.4732" cy="94.4732" r="94.4732" transform="matrix(0.926393 -0.376559 -0.376559 -0.926393 588.591 669.604)" fill="url(#paint4_linear_2115_721)"/>
<circle cx="94.4732" cy="94.4732" r="94.4732" transform="matrix(0.797366 -0.603496 -0.603496 -0.797366 672.754 630.694)" fill="url(#paint5_linear_2115_721)"/>
<circle cx="94.4733" cy="94.4733" r="94.4733" transform="matrix(0.137087 -0.990559 -0.990559 -0.137087 770.375 531.059)" fill="url(#paint6_linear_2115_721)"/>
<circle cx="94.4732" cy="94.4732" r="94.4732" transform="matrix(-0.789306 -0.614 -0.614 0.789306 773.617 358.715)" fill="url(#paint7_linear_2115_721)"/>
</g>
<g opacity="0.26">
<circle cx="94.4732" cy="94.4732" r="94.4732" transform="matrix(-0.926393 0.376559 0.376559 0.926393 557.464 57.3408)" fill="url(#paint8_linear_2115_721)"/>
<circle cx="94.4732" cy="94.4732" r="94.4732" transform="matrix(-0.926393 0.376559 0.376559 0.926393 505.105 106.242)" fill="url(#paint9_linear_2115_721)"/>
<circle cx="94.4733" cy="94.4733" r="94.4733" transform="matrix(0.376559 0.926393 0.926393 -0.376559 329.738 249.762)" fill="url(#paint10_linear_2115_721)"/>
<circle cx="94.4733" cy="94.4733" r="94.4733" transform="matrix(0.990559 0.137087 0.137087 -0.990559 398.481 432.303)" fill="url(#paint11_linear_2115_721)"/>
<circle cx="94.4732" cy="94.4732" r="94.4732" transform="matrix(0.926393 -0.376559 -0.376559 -0.926393 525.606 472.897)" fill="url(#paint12_linear_2115_721)"/>
<circle cx="94.4732" cy="94.4732" r="94.4732" transform="matrix(0.797366 -0.603496 -0.603496 -0.797366 609.769 433.987)" fill="url(#paint13_linear_2115_721)"/>
<circle cx="94.4733" cy="94.4733" r="94.4733" transform="matrix(0.137087 -0.990559 -0.990559 -0.137087 707.391 334.354)" fill="url(#paint14_linear_2115_721)"/>
<circle cx="94.4732" cy="94.4732" r="94.4732" transform="matrix(-0.789306 -0.614 -0.614 0.789306 710.632 162.008)" fill="url(#paint15_linear_2115_721)"/>
</g>
<g opacity="0.3" filter="url(#filter0_f_2115_721)">
<ellipse cx="528.582" cy="407.129" rx="308.887" ry="131.719" transform="rotate(10.3358 528.582 407.129)" fill="#FEE801"/>
</g>
<g opacity="0.3" filter="url(#filter1_f_2115_721)">
<ellipse cx="518.585" cy="354.748" rx="308.887" ry="131.719" transform="rotate(10.3358 518.585 354.748)" fill="#FEE801"/>
</g>
<defs>
<filter id="filter0_f_2115_721" x="9.99707" y="52.3809" width="1037.17" height="709.497" filterUnits="userSpaceOnUse" color-interpolation-filters="sRGB">
<feFlood flood-opacity="0" result="BackgroundImageFix"/>
<feBlend mode="normal" in="SourceGraphic" in2="BackgroundImageFix" result="shape"/>
<feGaussianBlur stdDeviation="106.889" result="effect1_foregroundBlur_2115_721"/>
</filter>
<filter id="filter1_f_2115_721" x="0" y="4.57764e-05" width="1037.17" height="709.497" filterUnits="userSpaceOnUse" color-interpolation-filters="sRGB">
<feFlood flood-opacity="0" result="BackgroundImageFix"/>
<feBlend mode="normal" in="SourceGraphic" in2="BackgroundImageFix" result="shape"/>
<feGaussianBlur stdDeviation="106.889" result="effect1_foregroundBlur_2115_721"/>
</filter>
<linearGradient id="paint0_linear_2115_721" x1="-1.48236e-06" y1="88.3016" x2="185.116" y2="113.32" gradientUnits="userSpaceOnUse">
<stop stop-color="#FFCA35"/>
<stop offset="1" stop-color="#FFD45B" stop-opacity="0"/>
</linearGradient>
<linearGradient id="paint1_linear_2115_721" x1="-1.48236e-06" y1="88.3016" x2="185.116" y2="113.32" gradientUnits="userSpaceOnUse">
<stop stop-color="#FFCA35"/>
<stop offset="1" stop-color="#FFD45B" stop-opacity="0"/>
</linearGradient>
<linearGradient id="paint2_linear_2115_721" x1="-1.48236e-06" y1="88.3016" x2="185.116" y2="113.32" gradientUnits="userSpaceOnUse">
<stop stop-color="#FFCA35"/>
<stop offset="1" stop-color="#FFD45B" stop-opacity="0"/>
</linearGradient>
<linearGradient id="paint3_linear_2115_721" x1="-1.48236e-06" y1="88.3016" x2="185.116" y2="113.32" gradientUnits="userSpaceOnUse">
<stop stop-color="#FFCA35"/>
<stop offset="1" stop-color="#FFD45B" stop-opacity="0"/>
</linearGradient>
<linearGradient id="paint4_linear_2115_721" x1="-1.48236e-06" y1="88.3016" x2="185.116" y2="113.32" gradientUnits="userSpaceOnUse">
<stop stop-color="#FFCA35"/>
<stop offset="1" stop-color="#FFD45B" stop-opacity="0"/>
</linearGradient>
<linearGradient id="paint5_linear_2115_721" x1="-4.58326e-08" y1="88.3016" x2="146.782" y2="137.392" gradientUnits="userSpaceOnUse">
<stop stop-color="#FFD45B"/>
<stop offset="1" stop-color="#FFD45B" stop-opacity="0"/>
</linearGradient>
<linearGradient id="paint6_linear_2115_721" x1="8.99274e-10" y1="88.3016" x2="158.768" y2="132.254" gradientUnits="userSpaceOnUse">
<stop stop-color="#FFD45B"/>
<stop offset="1" stop-color="#FFD45B" stop-opacity="0"/>
</linearGradient>
<linearGradient id="paint7_linear_2115_721" x1="-1.53371e-07" y1="88.3016" x2="116.52" y2="149.979" gradientUnits="userSpaceOnUse">
<stop stop-color="#FFD45B"/>
<stop offset="1" stop-color="#FFD45B" stop-opacity="0"/>
</linearGradient>
<linearGradient id="paint8_linear_2115_721" x1="-1.48236e-06" y1="88.3016" x2="185.116" y2="113.32" gradientUnits="userSpaceOnUse">
<stop stop-color="#FFCA35"/>
<stop offset="1" stop-color="#FFD45B" stop-opacity="0"/>
</linearGradient>
<linearGradient id="paint9_linear_2115_721" x1="-1.48236e-06" y1="88.3016" x2="185.116" y2="113.32" gradientUnits="userSpaceOnUse">
<stop stop-color="#FFCA35"/>
<stop offset="1" stop-color="#FFD45B" stop-opacity="0"/>
</linearGradient>
<linearGradient id="paint10_linear_2115_721" x1="-1.48236e-06" y1="88.3016" x2="185.116" y2="113.32" gradientUnits="userSpaceOnUse">
<stop stop-color="#FFCA35"/>
<stop offset="1" stop-color="#FFD45B" stop-opacity="0"/>
</linearGradient>
<linearGradient id="paint11_linear_2115_721" x1="-1.48236e-06" y1="88.3016" x2="185.116" y2="113.32" gradientUnits="userSpaceOnUse">
<stop stop-color="#FFCA35"/>
<stop offset="1" stop-color="#FFD45B" stop-opacity="0"/>
</linearGradient>
<linearGradient id="paint12_linear_2115_721" x1="-1.48236e-06" y1="88.3016" x2="185.116" y2="113.32" gradientUnits="userSpaceOnUse">
<stop stop-color="#FFCA35"/>
<stop offset="1" stop-color="#FFD45B" stop-opacity="0"/>
</linearGradient>
<linearGradient id="paint13_linear_2115_721" x1="-4.58326e-08" y1="88.3016" x2="146.782" y2="137.392" gradientUnits="userSpaceOnUse">
<stop stop-color="#FFD45B"/>
<stop offset="1" stop-color="#FFD45B" stop-opacity="0"/>
</linearGradient>
<linearGradient id="paint14_linear_2115_721" x1="8.99274e-10" y1="88.3016" x2="158.768" y2="132.254" gradientUnits="userSpaceOnUse">
<stop stop-color="#FFD45B"/>
<stop offset="1" stop-color="#FFD45B" stop-opacity="0"/>
</linearGradient>
<linearGradient id="paint15_linear_2115_721" x1="-1.53371e-07" y1="88.3016" x2="116.52" y2="149.979" gradientUnits="userSpaceOnUse">
<stop stop-color="#FFD45B"/>
<stop offset="1" stop-color="#FFD45B" stop-opacity="0"/>
</linearGradient>
</defs>
</svg>
