<svg width="933" height="634" viewBox="0 0 933 634" fill="none" xmlns="http://www.w3.org/2000/svg">
<path d="M191.309 555.102C110.17 500.129 123.822 376.73 215.014 340.822L286.799 312.556C311.43 302.857 332.234 285.401 346.063 262.828L386.366 197.044C437.566 113.473 561.461 121.459 601.507 210.911L633.523 282.426C642.784 303.113 657.631 320.807 676.396 333.52L747.271 381.54C827.195 435.69 815.418 556.849 726.561 594.594L648.309 627.834C625.978 637.319 606.987 653.254 593.768 673.598L547.443 744.889C494.84 825.841 373.477 816.398 334.03 728.284L299.049 650.146C289.787 629.459 274.94 611.765 256.176 599.051L191.309 555.102Z" fill="#FF8587" fill-opacity="0.04"/>
<path d="M177.321 466.58C116.929 389.391 167.732 276.109 265.541 269.869L342.533 264.957C368.952 263.271 394.103 253.029 414.184 235.779L472.704 185.506C547.047 121.642 662.536 167.205 673.249 264.625L681.814 342.509C684.291 365.039 693.003 386.431 706.969 404.282L759.723 471.708C819.212 547.742 770.879 659.466 674.731 668.17L590.057 675.835C565.895 678.022 542.935 687.372 524.118 702.687L458.178 756.356C383.302 817.298 270.67 771.124 260.117 675.161L250.759 590.063C248.281 567.534 239.57 546.141 225.603 528.29L177.321 466.58Z" fill="#FF8587" fill-opacity="0.07"/>
<path d="M198.55 357.574C171.729 263.308 261.506 177.553 354.445 208.662L427.604 233.151C452.707 241.554 479.864 241.554 504.968 233.151L578.127 208.662C671.066 177.553 760.842 263.308 734.022 357.574L712.58 432.937C706.377 454.737 706.377 477.835 712.58 499.636L736.008 581.978C762.427 674.834 675.527 760.078 583.196 731.877L501.885 707.041C478.681 699.954 453.891 699.954 430.687 707.041L349.375 731.877C257.045 760.078 170.145 674.834 196.564 581.978L219.992 499.636C226.195 477.835 226.195 454.737 219.992 432.937L198.55 357.574Z" fill="#FF8587" fill-opacity="0.1"/>
</svg>
