<svg width="1048" height="714" viewBox="0 0 1048 714" fill="none" xmlns="http://www.w3.org/2000/svg">
<path d="M375.794 431.926C313.89 389.985 324.305 295.838 393.88 268.442L448.648 246.877C467.44 239.477 483.312 226.159 493.863 208.937L524.612 158.747C563.675 94.9876 658.199 101.081 688.753 169.328L713.179 223.889C720.245 239.672 731.572 253.172 745.888 262.871L799.962 299.508C860.94 340.821 851.955 433.259 784.162 462.056L724.459 487.416C707.423 494.653 692.934 506.811 682.848 522.332L647.504 576.723C607.372 638.485 514.779 631.28 484.682 564.054L457.994 504.439C450.928 488.656 439.6 475.156 425.284 465.457L375.794 431.926Z" fill="#8CD238" fill-opacity="0.08"/>
<path d="M365.122 364.388C319.045 305.497 357.806 219.07 432.428 214.309L491.169 210.561C511.325 209.275 530.514 201.461 545.834 188.3L590.483 149.945C647.202 101.22 735.313 135.982 743.487 210.308L750.021 269.729C751.911 286.918 758.558 303.239 769.213 316.858L809.462 368.301C854.849 426.311 817.973 511.549 744.618 518.19L680.016 524.038C661.581 525.707 644.064 532.841 629.708 544.525L579.4 585.471C522.274 631.966 436.341 596.738 428.29 523.524L421.15 458.599C419.26 441.41 412.614 425.089 401.958 411.47L365.122 364.388Z" fill="#8CD238" fill-opacity="0.12"/>
<path d="M381.318 281.226C360.856 209.306 429.35 143.88 500.257 167.615L556.074 186.298C575.226 192.709 595.945 192.709 615.098 186.298L670.915 167.615C741.822 143.88 810.316 209.306 789.853 281.226L773.494 338.724C768.762 355.356 768.762 372.978 773.494 389.611L791.369 452.434C811.525 523.278 745.225 588.314 674.782 566.798L612.746 547.849C595.043 542.442 576.129 542.442 558.426 547.849L496.39 566.798C425.947 588.314 359.647 523.278 379.803 452.434L397.677 389.611C402.41 372.978 402.41 355.356 397.677 338.724L381.318 281.226Z" fill="#8CD238" fill-opacity="0.16"/>
<g opacity="0.3" filter="url(#filter0_f_2115_703)">
<ellipse cx="528.582" cy="407.13" rx="308.887" ry="131.719" transform="rotate(10.3358 528.582 407.13)" fill="#41A23D"/>
</g>
<g opacity="0.3" filter="url(#filter1_f_2115_703)">
<ellipse cx="518.585" cy="354.749" rx="308.887" ry="131.719" transform="rotate(10.3358 518.585 354.749)" fill="#41A23D"/>
</g>
<defs>
<filter id="filter0_f_2115_703" x="9.99707" y="52.3809" width="1037.17" height="709.497" filterUnits="userSpaceOnUse" color-interpolation-filters="sRGB">
<feFlood flood-opacity="0" result="BackgroundImageFix"/>
<feBlend mode="normal" in="SourceGraphic" in2="BackgroundImageFix" result="shape"/>
<feGaussianBlur stdDeviation="106.889" result="effect1_foregroundBlur_2115_703"/>
</filter>
<filter id="filter1_f_2115_703" x="0" y="4.57764e-05" width="1037.17" height="709.497" filterUnits="userSpaceOnUse" color-interpolation-filters="sRGB">
<feFlood flood-opacity="0" result="BackgroundImageFix"/>
<feBlend mode="normal" in="SourceGraphic" in2="BackgroundImageFix" result="shape"/>
<feGaussianBlur stdDeviation="106.889" result="effect1_foregroundBlur_2115_703"/>
</filter>
</defs>
</svg>
