<svg width="1440" height="671" viewBox="0 0 1440 671" fill="none" xmlns="http://www.w3.org/2000/svg">
  <defs>
    <pattern id="dotsBase" width="13.730" height="17.585" patternUnits="userSpaceOnUse">
      <ellipse cx="0.762" cy="0.977" rx="0.762" ry="0.977" fill="#0B665A" fill-opacity="0.18"/>
    </pattern>

    <pattern id="dotsAccent" width="164.760" height="211.021" patternUnits="userSpaceOnUse">
      <ellipse cx="0.762" cy="0.977" rx="0.762" ry="0.977" fill="#0B665A" fill-opacity="0.550"/>
      <ellipse cx="55.682" cy="0.977" rx="0.801" ry="0.977" fill="#0B665A" fill-opacity="0.900"/>
      <ellipse cx="0.762" cy="18.563" rx="0.801" ry="0.977" fill="#0B665A" fill-opacity="0.650"/>
      <ellipse cx="151.792" cy="18.563" rx="0.762" ry="1.056" fill="#0B665A" fill-opacity="0.750"/>
      <ellipse cx="96.872" cy="36.148" rx="0.762" ry="1.056" fill="#0B665A" fill-opacity="0.900"/>
      <ellipse cx="124.332" cy="36.148" rx="0.839" ry="0.977" fill="#0B665A" fill-opacity="0.650"/>
      <ellipse cx="41.952" cy="53.733" rx="0.762" ry="0.977" fill="#0B665A" fill-opacity="0.650"/>
      <ellipse cx="69.412" cy="53.733" rx="0.839" ry="0.977" fill="#0B665A" fill-opacity="0.850"/>
      <ellipse cx="124.332" cy="53.733" rx="0.762" ry="0.977" fill="#0B665A" fill-opacity="0.750"/>
      <ellipse cx="14.492" cy="71.318" rx="0.839" ry="1.017" fill="#0B665A" fill-opacity="0.550"/>
      <ellipse cx="69.412" cy="71.318" rx="0.762" ry="1.056" fill="#0B665A" fill-opacity="0.900"/>
      <ellipse cx="14.492" cy="88.903" rx="0.762" ry="1.056" fill="#0B665A" fill-opacity="0.650"/>
      <ellipse cx="110.602" cy="106.488" rx="0.839" ry="0.977" fill="#0B665A" fill-opacity="0.900"/>
      <ellipse cx="138.062" cy="106.488" rx="0.801" ry="0.977" fill="#0B665A" fill-opacity="0.650"/>
      <ellipse cx="55.682" cy="124.073" rx="0.839" ry="1.017" fill="#0B665A" fill-opacity="0.650"/>
      <ellipse cx="83.142" cy="124.073" rx="0.801" ry="0.977" fill="#0B665A" fill-opacity="0.850"/>
      <ellipse cx="138.062" cy="124.073" rx="0.839" ry="1.017" fill="#0B665A" fill-opacity="0.750"/>
      <ellipse cx="0.762" cy="141.658" rx="0.839" ry="0.977" fill="#0B665A" fill-opacity="0.850"/>
      <ellipse cx="28.222" cy="141.658" rx="0.801" ry="1.017" fill="#0B665A" fill-opacity="0.550"/>
      <ellipse cx="83.142" cy="141.658" rx="0.839" ry="0.977" fill="#0B665A" fill-opacity="0.900"/>
      <ellipse cx="28.222" cy="159.243" rx="0.839" ry="0.977" fill="#0B665A" fill-opacity="0.650"/>
      <ellipse cx="124.332" cy="176.828" rx="0.801" ry="0.977" fill="#0B665A" fill-opacity="0.900"/>
      <ellipse cx="151.792" cy="176.828" rx="0.762" ry="1.056" fill="#0B665A" fill-opacity="0.650"/>
      <ellipse cx="69.412" cy="194.414" rx="0.801" ry="1.017" fill="#0B665A" fill-opacity="0.650"/>
      <ellipse cx="96.872" cy="194.414" rx="0.762" ry="1.056" fill="#0B665A" fill-opacity="0.850"/>
      <ellipse cx="151.792" cy="194.414" rx="0.801" ry="1.017" fill="#0B665A" fill-opacity="0.750"/>
    </pattern>

    <!-- boost both left and right sides -->
    <linearGradient id="sideBoost" x1="0" y1="0" x2="1" y2="0">
      <stop offset="0" stop-color="white" stop-opacity="1"/>
      <stop offset="0.15" stop-color="white" stop-opacity="0.4"/>
      <stop offset="0.5" stop-color="white" stop-opacity="0"/>
      <stop offset="0.85" stop-color="white" stop-opacity="0.4"/>
      <stop offset="1" stop-color="white" stop-opacity="1"/>
    </linearGradient>

    <mask id="accentMask">
      <rect width="100%" height="100%" fill="url(#sideBoost)"/>
    </mask>

    <linearGradient id="topFade" x1="0" y1="0" x2="0" y2="1">
      <stop offset="0" stop-color="white" stop-opacity="0"/>
      <stop offset="0.18" stop-color="white" stop-opacity="1"/>
      <stop offset="1" stop-color="white" stop-opacity="1"/>
    </linearGradient>
    <mask id="topFadeMask">
      <rect width="100%" height="100%" fill="url(#topFade)"/>
    </mask>
  </defs>

  <rect width="100%" height="100%" fill="url(#dotsBase)" mask="url(#topFadeMask)"/>
  <rect width="100%" height="100%" fill="url(#dotsAccent)" mask="url(#accentMask)"/>

  <g filter="url(#filter0_f_292_123378)">
<ellipse cx="719.5" cy="20.5" rx="792.5" ry="60.5" fill="#FAFAFC"/>
</g><g filter="url(#filter1_f_292_123378)">
<ellipse cx="719.5" cy="783" rx="792.5" ry="103" fill="#FAFAFC"/>
</g>
  <defs>
<filter id="filter0_f_292_123378" x="-123" y="-90" width="1685" height="221" filterUnits="userSpaceOnUse" color-interpolation-filters="sRGB">
<feFlood flood-opacity="0" result="BackgroundImageFix"/>
<feBlend mode="normal" in="SourceGraphic" in2="BackgroundImageFix" result="shape"/>
<feGaussianBlur stdDeviation="25" result="effect1_foregroundBlur_292_123378"/>
</filter>
<filter id="filter1_f_292_123378" x="-123" y="630" width="1685" height="306" filterUnits="userSpaceOnUse" color-interpolation-filters="sRGB">
<feFlood flood-opacity="0" result="BackgroundImageFix"/>
<feBlend mode="normal" in="SourceGraphic" in2="BackgroundImageFix" result="shape"/>
<feGaussianBlur stdDeviation="25" result="effect1_foregroundBlur_292_123378"/>
</filter>
<clipPath id="clip0_292_123378">
<rect width="1585" height="835" fill="white" transform="translate(-73)"/>
</clipPath>
<clipPath id="clip1_292_123378">
<rect width="1512" height="788" fill="white" transform="translate(-37 13)"/>
</clipPath>
</defs>
</svg>
