<svg width="1440" height="364" viewBox="0 0 1440 364" fill="none" xmlns="http://www.w3.org/2000/svg">
<path d="M537.119 357.309V205.535C537.119 175.49 521.322 154.095 497.892 154.095C474.462 154.095 455.612 177.016 455.612 207.57V357.309H389.394V206.553C389.394 166.308 378.685 156.131 349.658 156.131C323.175 156.131 309.413 172.437 309.413 205.026V357.309H243.195V106.727H305.342V143.387C322.157 110.289 345.587 100.09 378.685 100.09C411.784 100.09 429.107 110.776 448.466 139.825C462.228 112.324 484.618 100.09 516.211 100.09C566.633 100.09 601.789 136.772 601.789 183.632V357.309H537.097H537.119Z" fill="url(#paint0_linear_292_368)"/>
<path d="M627.275 357.312V15.0457H692.476V139.319C711.326 112.836 735.774 100.092 766.837 100.092C831.529 100.092 869.716 153.567 869.716 229.454C869.716 314.014 824.383 363.927 761.239 363.927C730.685 363.927 707.255 352.224 691.458 326.736L690.949 357.29H627.275V357.312ZM802.501 234.056C802.501 182.617 784.16 156.643 745.464 156.643C708.782 156.643 689.954 183.635 689.954 238.127C689.954 280.407 714.401 309.944 745.973 309.944C777.545 309.944 802.501 278.881 802.501 234.056Z" fill="url(#paint1_linear_292_368)"/>
<path d="M894.186 357.309V106.727H956.334V136.772C978.237 103.165 1003.7 100.09 1030.69 100.09H1039.34V167.835C1033.24 166.817 1027.11 166.308 1021 166.308C980.25 166.308 960.404 186.685 960.404 226.907V357.287H894.186V357.309Z" fill="url(#paint2_linear_292_368)"/>
<path d="M1183.82 232.018C1183.82 152.547 1233.22 100.09 1312.67 100.09C1392.12 100.09 1440 152.038 1440 232.018C1440 311.998 1390.6 363.925 1312.67 363.925C1234.75 363.925 1183.82 309.941 1183.82 232.018ZM1373.29 232.018C1373.29 181.087 1352.92 156.131 1312.7 156.131C1272.47 156.131 1252.1 181.087 1252.1 232.018C1252.1 282.949 1272.47 308.414 1312.7 308.414C1352.92 308.414 1373.29 282.949 1373.29 232.018Z" fill="url(#paint3_linear_292_368)"/>
<path d="M103.521 255.163H63.3868C67.9444 286.182 96.2196 305.784 132.26 305.784C157.792 305.784 187.904 300.762 207.506 282.531H209.785V301.691C209.785 333.152 188.346 357.334 120.844 357.334C59.7362 357.334 0 308.992 0 233.747C0 151.665 50.1563 100.137 120.402 100.137C171.487 100.137 218.9 136.62 218.9 195.449C218.9 240.605 184.696 255.185 103.521 255.185V255.163ZM114.915 151.178C85.2679 151.178 64.7364 175.338 63.3868 203.635L62.9221 211.844H90.2902C148.212 211.844 161.443 205.449 161.443 188.126C161.443 163.501 143.19 151.178 114.937 151.178H114.915Z" fill="url(#paint4_linear_292_368)"/>
<path d="M1092.95 75.7985C1072.2 75.7985 1055.29 58.4087 1055.29 37.6559C1055.29 16.903 1072.2 0 1092.95 0C1113.7 0 1131.09 16.903 1131.09 37.6559C1131.09 58.4087 1113.7 75.7985 1092.95 75.7985ZM1138.83 357.311C1088.61 357.311 1061.09 328.815 1061.09 276.18V99.9365H1079.43C1108.39 99.9365 1125.78 115.379 1125.78 148.212V269.897C1125.78 295.982 1136.89 304.19 1165.38 304.19H1177.46V318.195C1177.46 346.205 1166.36 357.311 1138.83 357.311Z" fill="url(#paint5_linear_292_368)"/>
<defs>
<linearGradient id="paint0_linear_292_368" x1="720" y1="0" x2="720" y2="363.927" gradientUnits="userSpaceOnUse">
<stop stop-color="#FF8587" stop-opacity="0.57"/>
<stop offset="1" stop-color="white" stop-opacity="0"/>
</linearGradient>
<linearGradient id="paint1_linear_292_368" x1="720" y1="0" x2="720" y2="363.927" gradientUnits="userSpaceOnUse">
<stop stop-color="#FF8587" stop-opacity="0.57"/>
<stop offset="1" stop-color="white" stop-opacity="0"/>
</linearGradient>
<linearGradient id="paint2_linear_292_368" x1="720" y1="0" x2="720" y2="363.927" gradientUnits="userSpaceOnUse">
<stop stop-color="#FF8587" stop-opacity="0.57"/>
<stop offset="1" stop-color="white" stop-opacity="0"/>
</linearGradient>
<linearGradient id="paint3_linear_292_368" x1="720" y1="0" x2="720" y2="363.927" gradientUnits="userSpaceOnUse">
<stop stop-color="#FF8587" stop-opacity="0.57"/>
<stop offset="1" stop-color="white" stop-opacity="0"/>
</linearGradient>
<linearGradient id="paint4_linear_292_368" x1="720" y1="0" x2="720" y2="363.927" gradientUnits="userSpaceOnUse">
<stop stop-color="#FF8587" stop-opacity="0.57"/>
<stop offset="1" stop-color="white" stop-opacity="0"/>
</linearGradient>
<linearGradient id="paint5_linear_292_368" x1="720" y1="0" x2="720" y2="363.927" gradientUnits="userSpaceOnUse">
<stop stop-color="#FF8587" stop-opacity="0.57"/>
<stop offset="1" stop-color="white" stop-opacity="0"/>
</linearGradient>
</defs>
</svg>
