<svg width="24" height="16" viewBox="0 0 24 16" fill="none" xmlns="http://www.w3.org/2000/svg">
<path d="M1.31739 0H22.6783C23.4044 0 23.9957 0.566666 23.9957 1.2625V14.7334C23.9957 15.4292 23.4044 15.9958 22.6783 15.9958H1.31739C0.591305 16 0 15.4334 0 14.7375V1.2625C0 0.566666 0.591305 0 1.31739 0Z" fill="#C8102E"/>
<path d="M0.0086952 1.1377H23.9957C24 1.17936 24.0044 1.22103 24.0044 1.26686V2.49186H0V1.2627C0 1.22103 0.004348 1.17936 0.0086952 1.1377ZM24 3.6127V4.9627H0V3.6127H24ZM24 6.0877V7.4377H0V6.0877H24ZM24 8.56272V9.91272H0V8.56272H24ZM24 11.0377V12.3877H0V11.0377H24ZM24 13.5127V14.7335C24 14.7752 23.9957 14.821 23.9913 14.8627H0.0086952C0.004348 14.8252 0 14.7794 0 14.7377V13.5169H24V13.5127Z" fill="white"/>
<path d="M9.0435 0V8.61664H0V1.2625C0 0.566666 0.591305 0 1.31739 0H9.0435Z" fill="#3C3B6E"/>
<path d="M0.535006 1.19141L0.835008 2.08724L0.0437012 1.53307H1.02631L0.230658 2.08724L0.535006 1.19141Z" fill="white"/>
<path d="M0.535006 2.92383L0.835008 3.81966L0.0437012 3.2655H1.02631L0.230658 3.81966L0.535006 2.92383Z" fill="white"/>
<path d="M0.535006 4.6582L0.835008 5.55404L0.0437012 4.99987H1.02631L0.230658 5.55404L0.535006 4.6582Z" fill="white"/>
<path d="M0.535006 6.39258L0.835008 7.28841L0.0437012 6.73424H1.02631L0.230658 7.28841L0.535006 6.39258Z" fill="white"/>
<path d="M1.59555 0.325195L1.8999 1.22103L1.10425 0.666862H2.09121L1.29121 1.22103L1.59555 0.325195Z" fill="white"/>
<path d="M1.59555 2.05859L1.8999 2.95443L1.10425 2.40026H2.09121L1.29121 2.95443L1.59555 2.05859Z" fill="white"/>
<path d="M1.59555 3.79102L1.8999 4.68685L1.10425 4.13268H2.09121L1.29121 4.68685L1.59555 3.79102Z" fill="white"/>
<path d="M1.59555 5.52539L1.8999 6.42122L1.10425 5.86706H2.09121L1.29121 6.42122L1.59555 5.52539Z" fill="white"/>
<path d="M1.59555 7.25781L1.8999 8.15361L1.10425 7.59948H2.09121L1.29121 8.15361L1.59555 7.25781Z" fill="white"/>
<path d="M2.66086 1.19141L2.9652 2.08724L2.16956 1.53307H3.15216L2.35651 2.08724L2.66086 1.19141Z" fill="white"/>
<path d="M2.66086 2.92383L2.9652 3.81966L2.16956 3.2655H3.15216L2.35651 3.81966L2.66086 2.92383Z" fill="white"/>
<path d="M2.66086 4.6582L2.9652 5.55404L2.16956 4.99987H3.15216L2.35651 5.55404L2.66086 4.6582Z" fill="white"/>
<path d="M2.66086 6.39258L2.9652 7.28841L2.16956 6.73424H3.15216L2.35651 7.28841L2.66086 6.39258Z" fill="white"/>
<path d="M3.72568 0.325195L4.02568 1.22103L3.23438 0.666862H4.21698L3.42134 1.22103L3.72568 0.325195Z" fill="white"/>
<path d="M3.72568 2.05859L4.02568 2.95443L3.23438 2.40026H4.21698L3.42134 2.95443L3.72568 2.05859Z" fill="white"/>
<path d="M3.72568 3.79102L4.02568 4.68685L3.23438 4.13268H4.21698L3.42134 4.68685L3.72568 3.79102Z" fill="white"/>
<path d="M3.72568 5.52539L4.02568 6.42122L3.23438 5.86706H4.21698L3.42134 6.42122L3.72568 5.52539Z" fill="white"/>
<path d="M3.72568 7.25781L4.02568 8.15361L3.23438 7.59948H4.21698L3.42134 8.15361L3.72568 7.25781Z" fill="white"/>
<path d="M4.78696 1.19141L5.0913 2.08724L4.29565 1.53307H5.27826L4.48261 2.08724L4.78696 1.19141Z" fill="white"/>
<path d="M4.78696 2.92383L5.0913 3.81966L4.29565 3.2655H5.27826L4.48261 3.81966L4.78696 2.92383Z" fill="white"/>
<path d="M4.78696 4.6582L5.0913 5.55404L4.29565 4.99987H5.27826L4.48261 5.55404L4.78696 4.6582Z" fill="white"/>
<path d="M4.78696 6.39258L5.0913 7.28841L4.29565 6.73424H5.27826L4.48261 7.28841L4.78696 6.39258Z" fill="white"/>
<path d="M5.85227 0.325195L6.15662 1.22103L5.36096 0.666862H6.34357L5.54792 1.22103L5.85227 0.325195Z" fill="white"/>
<path d="M5.85227 2.05859L6.15662 2.95443L5.36096 2.40026H6.34357L5.54792 2.95443L5.85227 2.05859Z" fill="white"/>
<path d="M5.85227 3.79102L6.15662 4.68685L5.36096 4.13268H6.34357L5.54792 4.68685L5.85227 3.79102Z" fill="white"/>
<path d="M5.85227 5.52539L6.15662 6.42122L5.36096 5.86706H6.34357L5.54792 6.42122L5.85227 5.52539Z" fill="white"/>
<path d="M5.85227 7.25781L6.15662 8.15361L5.36096 7.59948H6.34357L5.54792 8.15361L5.85227 7.25781Z" fill="white"/>
<path d="M6.91318 1.19141L7.21752 2.08724L6.42188 1.53307H7.40448L6.61318 2.08724L6.91318 1.19141Z" fill="white"/>
<path d="M6.91318 2.92383L7.21752 3.81966L6.42188 3.2655H7.40448L6.61318 3.81966L6.91318 2.92383Z" fill="white"/>
<path d="M6.91318 4.6582L7.21752 5.55404L6.42188 4.99987H7.40448L6.61318 5.55404L6.91318 4.6582Z" fill="white"/>
<path d="M6.91318 6.39258L7.21752 7.28841L6.42188 6.73424H7.40448L6.61318 7.28841L6.91318 6.39258Z" fill="white"/>
<path d="M7.97837 0.325195L8.28269 1.22103L7.48706 0.666862H8.46965L7.67402 1.22103L7.97837 0.325195Z" fill="white"/>
<path d="M7.97837 2.05859L8.28269 2.95443L7.48706 2.40026H8.46965L7.67402 2.95443L7.97837 2.05859Z" fill="white"/>
<path d="M7.97837 3.79102L8.28269 4.68685L7.48706 4.13268H8.46965L7.67402 4.68685L7.97837 3.79102Z" fill="white"/>
<path d="M7.97837 5.52539L8.28269 6.42122L7.48706 5.86706H8.46965L7.67402 6.42122L7.97837 5.52539Z" fill="white"/>
<path d="M7.97837 7.25781L8.28269 8.15361L7.48706 7.59948H8.46965L7.67402 8.15361L7.97837 7.25781Z" fill="white"/>
<mask id="mask0_322_2856" style="mask-type:luminance" maskUnits="userSpaceOnUse" x="0" y="0" width="25" height="17">
<path d="M24.3986 0H0V16.2658H24.3986V0Z" fill="white"/>
</mask>
<g mask="url(#mask0_322_2856)">
<path d="M0.000244141 0V16.2658H24.3989V0H0.000244141Z" fill="#012169"/>
<path d="M0.000244141 0L24.3989 16.2658M24.3989 0L0.000244141 16.2658" stroke="white" stroke-width="3.30742"/>
<mask id="mask1_322_2856" style="mask-type:luminance" maskUnits="userSpaceOnUse" x="0" y="0" width="25" height="17">
<path d="M12.1995 8.13292H24.3989V16.2658L12.1995 8.13292ZM12.1995 8.13292V16.2658H0.000244141L12.1995 8.13292ZM12.1995 8.13292H0.000244141V0L12.1995 8.13292ZM12.1995 8.13292V0H24.3989L12.1995 8.13292Z" fill="white"/>
</mask>
<g mask="url(#mask1_322_2856)">
<path d="M0.000244141 0L24.3989 16.2658M24.3989 0L0.000244141 16.2658" stroke="#C8102E" stroke-width="2.20495"/>
</g>
<path d="M-0.486816 5.96432H10.2486V-0.541992H14.1524V5.96432H24.8878V10.3018H14.1524V16.8082H10.2486V10.3018H-0.486816V5.96432Z" fill="#C8102E" stroke="white" stroke-width="1.10247"/>
</g>
</svg>
