<svg width="129" height="43" viewBox="0 0 129 43" fill="none" xmlns="http://www.w3.org/2000/svg">
<rect width="129" height="43" fill="black"/>
<path d="M19.1407 20.9213L8.69684 32.2564C8.69782 32.2584 8.69782 32.2614 8.6988 32.2634C9.01956 33.4942 10.1182 34.4 11.4228 34.4C11.9447 34.4 12.4341 34.2555 12.854 34.0028L12.8873 33.9827L24.6427 27.0462L19.1407 20.9213Z" fill="#EA4335"/>
<path d="M29.7056 18.9911L29.6958 18.9841L24.6205 15.9758L18.9027 21.1789L24.6411 27.0451L29.6889 24.0668C30.5737 23.5773 31.175 22.6234 31.175 21.524C31.175 20.4306 30.5825 19.4817 29.7056 18.9911Z" fill="#FBBC04"/>
<path d="M8.69647 10.7428C8.63369 10.9795 8.60034 11.2283 8.60034 11.4851V31.5151C8.60034 31.7719 8.63369 32.0206 8.69745 32.2564L19.4993 21.2112L8.69647 10.7428Z" fill="#4285F4"/>
<path d="M19.2168 21.4999L24.6217 15.9738L12.8801 9.01225C12.4534 8.75043 11.9551 8.59997 11.4225 8.59997C10.1178 8.59997 9.01724 9.50778 8.69648 10.7396C8.69648 10.7406 8.6955 10.7416 8.6955 10.7426L19.2168 21.4999Z" fill="#34A853"/>
<path d="M46.8811 11.8382C46.8811 12.9132 46.5622 13.7697 45.9244 14.4075C45.2077 15.1672 44.2653 15.547 43.0971 15.547C41.9791 15.547 41.0331 15.16 40.2591 14.386C39.4851 13.612 39.0981 12.6588 39.0981 11.5265C39.0981 10.3942 39.4851 9.441 40.2591 8.667C41.0331 7.893 41.9791 7.506 43.0971 7.506C43.6633 7.506 44.1972 7.60633 44.6989 7.807C45.2005 8.00767 45.6126 8.29075 45.9351 8.65625L45.2256 9.36575C44.9891 9.07908 44.681 8.85692 44.3011 8.69925C43.9285 8.53442 43.5271 8.452 43.0971 8.452C42.2586 8.452 41.5491 8.74225 40.9686 9.32275C40.3953 9.91042 40.1086 10.645 40.1086 11.5265C40.1086 12.408 40.3953 13.1426 40.9686 13.7302C41.5491 14.3107 42.2586 14.601 43.0971 14.601C43.864 14.601 44.5018 14.386 45.0106 13.956C45.5195 13.526 45.8133 12.9347 45.8921 12.1822H43.0971V11.2577H46.8274C46.8632 11.4584 46.8811 11.6519 46.8811 11.8382ZM52.5763 7.678V8.624H49.0718V11.0642H52.2323V11.9887H49.0718V14.429H52.5763V15.375H48.0828V7.678H52.5763ZM56.5322 8.624V15.375H55.5432V8.624H53.3932V7.678H58.6822V8.624H56.5322ZM63.0657 15.375H62.0767V7.678H63.0657V15.375ZM67.2402 8.624V15.375H66.2512V8.624H64.1012V7.678H69.3902V8.624H67.2402ZM80.1105 11.5265C80.1105 12.666 79.7306 13.6192 78.971 14.386C78.2041 15.16 77.2653 15.547 76.1545 15.547C75.0365 15.547 74.0976 15.16 73.338 14.386C72.5783 13.6192 72.1985 12.666 72.1985 11.5265C72.1985 10.387 72.5783 9.43383 73.338 8.667C74.0976 7.893 75.0365 7.506 76.1545 7.506C77.2725 7.506 78.2113 7.89658 78.971 8.67775C79.7306 9.44458 80.1105 10.3942 80.1105 11.5265ZM73.209 11.5265C73.209 12.4152 73.4885 13.1497 74.0475 13.7302C74.6136 14.3107 75.316 14.601 76.1545 14.601C76.993 14.601 77.6917 14.3107 78.2507 13.7302C78.8169 13.1569 79.1 12.4223 79.1 11.5265C79.1 10.6307 78.8169 9.89608 78.2507 9.32275C77.6917 8.74225 76.993 8.452 76.1545 8.452C75.316 8.452 74.6136 8.74225 74.0475 9.32275C73.4885 9.90325 73.209 10.6378 73.209 11.5265ZM82.2666 15.375H81.2776V7.678H82.4816L86.2226 13.6657H86.2656L86.2226 12.1822V7.678H87.2116V15.375H86.1796L82.2666 9.097H82.2236L82.2666 10.5805V15.375Z" fill="white"/>
<path d="M100.532 32.8654H102.283V21.028H100.532V32.8654ZM116.303 25.292L114.296 30.4242H114.236L112.153 25.292H110.267L113.391 32.4648L111.611 36.4551H113.436L118.25 25.292H116.303ZM106.374 31.5208C105.799 31.5208 105 31.2319 105 30.5151C105 29.6023 105.995 29.252 106.856 29.252C107.625 29.252 107.989 29.4196 108.456 29.6478C108.32 30.7443 107.384 31.5208 106.374 31.5208ZM106.585 25.0334C105.317 25.0334 104.003 25.5969 103.461 26.8458L105.015 27.5002C105.347 26.8458 105.965 26.6318 106.615 26.6318C107.52 26.6318 108.441 27.1801 108.456 28.1554V28.2766C108.139 28.0939 107.46 27.8202 106.63 27.8202C104.955 27.8202 103.249 28.7491 103.249 30.4848C103.249 32.069 104.623 33.0898 106.162 33.0898C107.339 33.0898 107.989 32.5567 108.396 31.9317H108.456V32.8455H110.146V28.3069C110.146 26.2057 108.592 25.0334 106.585 25.0334ZM95.7636 26.7332H93.2732V22.6756H95.7636C97.0726 22.6756 97.8158 23.7693 97.8158 24.7039C97.8158 25.6215 97.0726 26.7332 95.7636 26.7332ZM95.7186 21.028H91.5232V32.8654H93.2732V28.3808H95.7186C97.6591 28.3808 99.5668 26.9623 99.5668 24.7039C99.5668 22.4455 97.6591 21.028 95.7186 21.028ZM72.8406 31.5227C71.631 31.5227 70.6185 30.5009 70.6185 29.0976C70.6185 27.6791 71.631 26.6413 72.8406 26.6413C74.0351 26.6413 74.9716 27.6791 74.9716 29.0976C74.9716 30.5009 74.0351 31.5227 72.8406 31.5227ZM74.8515 25.9548H74.7905C74.3973 25.4823 73.6419 25.0552 72.6895 25.0552C70.6936 25.0552 68.8647 26.8241 68.8647 29.0976C68.8647 31.355 70.6936 33.1097 72.6895 33.1097C73.6419 33.1097 74.3973 32.6826 74.7905 32.194H74.8515V32.7745C74.8515 34.3151 74.0351 35.1389 72.7195 35.1389C71.646 35.1389 70.9807 34.3606 70.7086 33.7043L69.1819 34.3454C69.6201 35.4135 70.7846 36.725 72.7195 36.725C74.7754 36.725 76.5142 35.5044 76.5142 32.5302V25.2986H74.8515V25.9548ZM77.7238 32.8654H79.4775V21.0271H77.7238V32.8654ZM82.0618 28.9603C82.0167 27.4045 83.2563 26.611 84.1477 26.611C84.844 26.611 85.4333 26.9614 85.6294 27.4651L82.0618 28.9603ZM87.5042 27.6176C87.1721 26.718 86.1586 25.0552 84.0877 25.0552C82.0317 25.0552 80.3239 26.6868 80.3239 29.0825C80.3239 31.3399 82.0167 33.1097 84.2838 33.1097C86.1136 33.1097 87.1721 31.981 87.6103 31.3247L86.2496 30.4091C85.7964 31.0804 85.1762 31.5227 84.2838 31.5227C83.3924 31.5227 82.7571 31.1107 82.3489 30.303L87.6853 28.0749L87.5042 27.6176ZM44.9892 26.291V27.9992H49.0401C48.9191 28.9603 48.6019 29.662 48.1186 30.1496C47.5284 30.7452 46.606 31.4014 44.9892 31.4014C42.4941 31.4014 40.5442 29.3722 40.5442 26.8553C40.5442 24.3375 42.4941 22.3092 44.9892 22.3092C46.3348 22.3092 47.3173 22.8432 48.0426 23.5298L49.2372 22.3243C48.2237 21.3481 46.8791 20.6 44.9892 20.6C41.5727 20.6 38.7004 23.4076 38.7004 26.8553C38.7004 30.303 41.5727 33.1097 44.9892 33.1097C46.8331 33.1097 48.2237 32.4989 49.3122 31.355C50.4317 30.2263 50.7789 28.6402 50.7789 27.3581C50.7789 26.9614 50.7489 26.5959 50.6879 26.291H44.9892ZM55.3853 31.5227C54.1757 31.5227 53.1323 30.5161 53.1323 29.0825C53.1323 27.6327 54.1757 26.6413 55.3853 26.6413C56.5939 26.6413 57.6373 27.6327 57.6373 29.0825C57.6373 30.5161 56.5939 31.5227 55.3853 31.5227ZM55.3853 25.0552C53.1773 25.0552 51.3785 26.7483 51.3785 29.0825C51.3785 31.4014 53.1773 33.1097 55.3853 33.1097C57.5923 33.1097 59.3911 31.4014 59.3911 29.0825C59.3911 26.7483 57.5923 25.0552 55.3853 25.0552ZM64.1242 31.5227C62.9146 31.5227 61.8712 30.5161 61.8712 29.0825C61.8712 27.6327 62.9146 26.6413 64.1242 26.6413C65.3337 26.6413 66.3762 27.6327 66.3762 29.0825C66.3762 30.5161 65.3337 31.5227 64.1242 31.5227ZM64.1242 25.0552C61.9172 25.0552 60.1183 26.7483 60.1183 29.0825C60.1183 31.4014 61.9172 33.1097 64.1242 33.1097C66.3312 33.1097 68.13 31.4014 68.13 29.0825C68.13 26.7483 66.3312 25.0552 64.1242 25.0552Z" fill="white"/>
</svg>
