<svg width="24" height="24" viewBox="0 0 24 24" fill="none" xmlns="http://www.w3.org/2000/svg">
<path d="M17.2162 13.6463C16.8675 11.4758 16.7373 10.503 15.4162 9.15375C14.5162 8.22 14.4 7.3125 14.385 7.035C14.67 6.5025 14.6737 5.55375 14.6437 4.99125C16.2161 4.8105 16.2221 2.472 15.1237 1.75125C14.4525 1.29 13.8 1.605 13.3912 1.98C12.9637 1.65 12.0975 1.2525 10.665 1.69875C8.95497 2.23125 8.24247 3.52125 8.60622 5.42625C8.80497 6.46125 8.35497 7.13625 8.33622 7.1625C8.16184 7.398 8.34822 7.76438 8.64372 7.755H9.19122C9.64197 9.05063 10.497 10.41 12.1275 9.14625C12.1687 9.9 12.0037 11.5013 10.0125 12.2325C9.18372 12.5363 8.71122 12.9825 8.60247 13.5638C8.49372 14.1638 8.81622 14.7263 9.11622 15.1013C7.57122 15.7238 6.60372 16.62 6.23622 17.7675C5.77122 19.23 6.41997 20.67 6.79872 21.3338C7.04134 21.2993 7.36122 21.2351 7.58997 21.1875C8.74122 20.9475 10.3912 20.5088 11.385 19.8075C12.3787 19.1063 13.8 18.6263 14.6587 18.375C14.6925 18.2588 14.9625 17.2538 14.4375 16.17C13.9537 15.1725 13.9537 13.575 13.9537 13.5075C13.9537 13.3013 14.1225 13.1363 14.3287 13.1363C14.5387 13.1363 14.7037 13.305 14.7037 13.5113C14.7037 13.5263 14.7037 15.0038 15.1125 15.8438C15.5662 16.7813 15.5437 17.655 15.4687 18.1688C15.9097 18.1485 16.0143 18.804 15.57 18.9075C15.5437 18.915 13.1812 19.4625 11.8162 20.4225C11.0313 20.9734 9.92022 21.3743 8.90622 21.6488C8.38497 21.7875 7.88997 21.8963 7.47747 21.9788C8.30247 22.35 9.16122 22.5038 10.0162 22.5038C13.8187 22.5038 17.5537 19.4738 17.7487 19.3125C17.8125 19.26 17.8575 19.185 17.8762 19.1025C18.12 18 17.3062 14.07 17.2162 13.6463Z" fill="white"/>
</svg>
