<svg width="27" height="60" viewBox="0 0 27 60" fill="none" xmlns="http://www.w3.org/2000/svg">
<path d="M23.8042 29.2023C24.4592 28.9233 25.1645 28.7645 25.8366 28.6901C26.184 28.6827 26.4305 28.9302 26.4127 29.2199C26.3433 30.3779 26.0787 31.4072 25.7042 32.3428C25.1758 33.4132 24.5121 34.3303 23.7716 35.0693C23.3116 35.477 22.742 35.7899 22.2064 36.018C21.0758 36.4994 19.9112 36.5717 18.7046 36.3807C18.3901 36.3029 18.2037 36.0298 18.28 35.7152C18.5616 34.8905 18.8692 34.1249 19.2608 33.394C19.7211 32.4931 20.4609 31.7545 21.083 31.0668C21.8567 30.2434 22.7923 29.6332 23.8042 29.2023ZM10.3865 28.57C10.445 28.545 10.5645 28.4942 10.6495 28.5292C12.4678 28.6706 14.0818 29.3245 15.2273 30.5284C15.9406 31.2116 16.2964 32.047 16.5932 32.9085C16.8378 33.6497 16.9059 34.468 16.743 35.2422C16.7343 35.3865 16.6062 35.5816 16.4868 35.6325C16.3673 35.6834 16.2241 35.6741 16.1394 35.6398C14.4058 35.0388 12.9965 33.8759 11.9354 32.7054C11.3679 32.0313 10.8584 31.3307 10.579 30.6746C10.3502 30.1375 10.1212 29.5996 10.0961 29.0469C10.0898 28.9472 10.1141 28.848 10.1659 28.7628C10.2177 28.6775 10.2952 28.61 10.3865 28.57ZM24.031 24.9461C23.2986 26.0331 22.3547 26.7884 21.2835 27.2446C20.7471 27.473 20.1858 27.6408 19.5145 27.7149C19.1917 27.782 18.9198 27.4751 18.9376 27.1854C18.965 25.2702 19.4522 23.4403 20.3888 21.8427C21.2067 20.2957 22.4748 18.9805 24.1418 18.2707L24.2605 18.2201C24.5579 18.0934 24.8384 18.2561 24.9655 18.5544C25.2188 19.6453 25.3278 20.7264 25.1482 21.7907C24.8999 23.0249 24.5757 24.0787 24.031 24.9461ZM10.2558 24.4661C9.90725 23.979 9.58551 23.5527 9.35645 23.0148C9.25475 22.776 9.41687 22.4961 9.65501 22.3947L9.77369 22.3442C11.5072 21.9574 13.2668 22.1257 14.6931 22.9992C16.0948 23.8128 17.1885 25.3913 17.3987 27.2062C17.4047 27.3056 17.3801 27.4044 17.3284 27.4892C17.2766 27.5741 17.2002 27.641 17.1093 27.681C17.0499 27.7062 16.9898 27.7318 16.8461 27.7237C15.0529 27.641 13.3545 26.9536 12.0715 26.0894C11.3759 25.6105 10.7148 25.0457 10.2558 24.4661ZM21.4351 15.051C20.8289 16.9306 19.6458 18.2807 17.9788 18.9906L17.9195 19.0159C17.622 19.1426 17.2822 19.0052 17.2145 18.6816C17.0031 17.8559 16.9105 16.9778 16.8435 16.1599C16.7643 15.138 16.8753 14.1105 17.171 13.13C17.5388 11.351 18.4247 9.63437 19.8535 8.53199L19.9729 8.48112C20.2111 8.37971 20.4654 8.4832 20.6273 8.69641C20.8643 9.08846 21.0677 9.56607 21.2458 9.98418C21.4998 10.5808 21.6692 11.1432 21.7192 11.7565C21.7683 12.864 21.7004 14.0214 21.4351 15.051ZM15.7694 19.0851C15.8711 19.3239 15.7932 19.6392 15.4966 19.7656L15.4364 19.7912C13.6435 20.2032 11.884 20.0349 10.4316 19.5962C9.60759 19.3116 8.84325 19.0026 8.23158 18.5583C7.92574 18.3361 7.62069 18.1136 7.37386 17.8654C7.2385 17.7121 7.12848 17.6184 6.99245 17.4636C6.80563 17.1916 6.8824 16.8759 7.15454 16.6897C7.42667 16.5035 7.66481 16.4021 7.96307 16.2751C9.27244 15.7175 10.6748 15.543 12.0765 15.8627C12.9599 16.122 13.7156 16.5753 14.4629 17.1737C15.0148 17.6444 15.3789 18.3348 15.7694 19.0851ZM14.0539 10.9305L13.9352 10.981C13.6971 11.0824 13.4423 10.9801 13.2813 10.7665C12.8325 10.0419 12.4764 9.2057 12.205 8.40372C11.8579 7.424 11.7149 6.42765 11.6903 5.37998C11.5658 3.5997 11.9422 1.67644 12.9891 0.173367C12.9891 0.173367 13.0228 0.0878081 13.1423 0.0369367C13.2344 -0.0011055 13.336 -0.00984918 13.4333 0.0118906C13.5307 0.0336304 13.6191 0.0848036 13.6866 0.158482C15.4092 1.89269 16.3151 4.18657 16.2876 6.10183C16.2257 8.10298 15.3992 9.79432 14.055 10.9309L14.0539 10.9305ZM11.8174 12.4471C11.4854 12.6597 11.188 12.7864 10.8905 12.9131C9.58113 13.4707 8.20406 13.7047 6.98877 13.658C5.45067 13.6784 4.16769 13.3081 3.08128 12.572C2.8 12.4097 2.79243 12.0605 3.03889 11.814C3.77973 11.0759 4.57047 10.457 5.46368 10.0766C6.11876 9.79768 6.82373 9.63806 7.52116 9.62317C8.42117 9.59232 9.30609 9.85093 10.1543 10.1945C10.8593 10.5288 11.4373 11.0587 11.9798 11.6741C12.1666 11.946 12.1149 12.3205 11.8174 12.4471ZM8.28075 6.62009C8.22141 6.64536 8.16207 6.67063 8.01727 6.66199C6.22402 6.5793 4.60232 6.07207 3.32009 5.20753C2.56406 4.75344 1.91082 4.04468 1.34226 3.37016C0.824374 2.81466 0.374488 2.0896 0.0440616 1.31367C0.0162926 1.25109 0.00133383 1.18359 7.38067e-05 1.11516C-0.00118622 1.04674 0.0112792 0.978782 0.0367269 0.915327C0.0621763 0.851871 0.100092 0.794205 0.148227 0.74575C0.196362 0.697294 0.253735 0.659035 0.316948 0.633239L0.376287 0.607969C1.15734 0.418409 1.96473 0.360616 2.76528 0.436967C3.83576 0.475036 4.73625 0.936983 5.66196 1.46033C7.22469 2.48754 8.36906 4.18497 8.62999 6.11895C8.64701 6.32352 8.51889 6.51868 8.28075 6.62009ZM13.6886 57.6265C13.3223 57.9231 13.0165 58.1948 12.5996 58.3724C12.3615 58.4738 12.0893 58.66 11.852 58.7611C11.5537 58.8881 11.2562 59.0147 10.9334 59.0819C10.3721 59.2497 9.81038 59.4186 9.25853 59.4418C8.70668 59.465 8.12825 59.4301 7.60962 59.3689C6.5478 59.1865 5.61298 58.8086 4.86562 58.2102C4.21972 57.695 3.66856 57.0707 3.23706 56.3656C3.05068 56.0926 3.18712 55.7524 3.4846 55.6257L3.72196 55.5246C4.37626 55.246 5.11601 55.0012 5.78732 54.9272C6.7819 54.7848 7.71702 54.6697 8.75351 54.7925C9.2718 54.853 9.73143 54.9403 10.2149 55.0859C10.6988 55.2322 11.1838 55.3791 11.6083 55.5507C12.3726 55.8597 13.0693 56.3391 13.6711 56.9291C13.9267 57.0312 13.9354 57.3808 13.6886 57.6265ZM1.96528 53.8752C1.63486 53.0992 1.42356 52.2717 1.32216 51.5397C1.17886 50.5426 1.14592 49.64 1.25777 48.746C1.28419 48.312 1.39529 47.9123 1.50606 47.5118C1.61749 47.1129 1.72827 46.7124 1.86393 46.3725C1.99959 46.0326 2.19693 45.6664 2.44373 45.4208C2.53707 45.3107 2.66407 45.1151 2.75819 45.0047C2.79297 44.9196 2.85231 44.8944 2.91243 44.8687C3.09045 44.7929 3.31915 44.8361 3.48096 45.0493C3.98941 45.7495 4.41317 46.4153 4.7436 47.1913C4.92165 47.6094 5.06648 48.1119 5.12474 48.5801C5.18411 49.0488 5.21736 49.4583 5.15693 49.977C5.04586 50.8706 4.81456 51.8155 4.30431 52.597C3.86095 53.2085 3.3337 53.7854 2.7293 54.1834L2.66996 54.2087C2.40648 54.2506 2.09232 54.1735 1.96528 53.8752ZM18.2678 51.8684C17.9023 52.1647 17.4854 52.3422 17.0692 52.5194C16.4133 52.7987 15.7677 52.9331 15.1814 53.0421C13.3372 53.3336 11.494 52.6376 10.1187 51.39C9.89756 51.2021 9.92398 50.7681 10.1364 50.6064C10.9623 49.9032 11.8638 49.3778 12.8164 48.9722C13.53 48.6683 14.2698 48.4235 15.0004 48.3242C16.7858 48.0569 18.6376 48.1147 20.2688 48.9712C20.5492 49.1339 20.6426 49.5178 20.4552 49.7382C19.8848 50.5453 19.0593 51.2492 18.2678 51.8684ZM9.10967 49.3519C9.07567 49.4367 9.01633 49.4619 8.89687 49.5128C8.71885 49.5886 8.48904 49.545 8.32801 49.3314C7.1402 47.8634 6.54701 46.1412 6.23543 44.5821C6.08302 43.7304 6.10154 42.9465 6.17894 42.1384C6.21369 41.5593 6.4178 41.0488 6.62302 40.5387C6.71636 40.4286 6.75002 40.3431 6.8687 40.2925C6.98738 40.242 7.19263 40.2258 7.32799 40.3791C8.85672 41.4911 9.89973 42.9505 10.2378 44.5695C10.6605 46.2228 10.2334 48.027 9.11012 49.3508L9.10967 49.3519ZM15.4905 44.5193C15.2092 44.3569 15.1423 44.033 15.3041 43.7523C15.769 43.0625 16.2931 42.4147 16.8704 41.8162C17.2156 41.4629 17.6043 41.1551 18.0271 40.9C18.3933 40.6035 18.8439 40.3404 19.2347 40.1036L19.9492 39.7994C21.378 39.1909 22.9595 38.9411 24.5052 39.2698C24.8197 39.3477 25.0061 39.6207 24.8696 39.961C24.4853 41.0403 23.966 41.9672 23.3703 42.7148C22.6211 43.5981 21.6516 44.2931 20.7841 44.7319L20.6053 44.808C19.7129 45.188 18.7784 45.3048 17.8512 45.276C16.9935 45.077 16.1952 44.8528 15.4905 44.5193ZM14.2983 39.2441C14.417 39.6874 14.4163 40.1817 14.45 40.59C14.4315 41.374 14.3287 42.1225 13.9962 42.8275C13.9467 42.937 13.8591 43.0246 13.7497 43.0739C13.5709 43.1501 13.4269 43.1411 13.2311 43.0127C12.5678 42.5525 11.9758 41.9967 11.4744 41.3633C10.8805 40.6292 10.4053 39.8447 9.99017 39.0345C9.57473 38.2236 9.38832 37.4566 9.26237 36.6648C9.15232 36.0772 9.12773 35.5234 9.24715 34.9786C9.25581 34.8343 9.40894 34.6979 9.5284 34.647C9.64786 34.5962 9.79221 34.6059 9.93623 34.6149C11.6944 35.2758 12.9936 36.3449 13.8586 37.8801C13.9766 38.3238 14.18 38.8015 14.2983 39.2441Z" fill="#D4D4D4"/>
</svg>
