<svg width="27" height="60" viewBox="0 0 27 60" fill="none" xmlns="http://www.w3.org/2000/svg">
<path d="M2.60947 29.2023C1.9544 28.9233 1.24909 28.7645 0.576995 28.6901C0.229618 28.6827 -0.0168766 28.9302 0.000887681 29.2199C0.0703832 30.3779 0.334911 31.4072 0.70946 32.3428C1.2378 33.4132 1.90151 34.3303 2.64201 35.0693C3.10205 35.477 3.67167 35.7899 4.20728 36.018C5.33785 36.4994 6.50246 36.5717 7.70908 36.3807C8.02357 36.3029 8.20995 36.0298 8.13362 35.7152C7.85208 34.8905 7.54441 34.1249 7.15285 33.394C6.69251 32.4931 5.95278 31.7545 5.33062 31.0668C4.5569 30.2434 3.62136 29.6332 2.60947 29.2023ZM16.0272 28.57C15.9686 28.545 15.8491 28.4942 15.7641 28.5292C13.9459 28.6706 12.3318 29.3245 11.1864 30.5284C10.473 31.2116 10.1172 32.047 9.82047 32.9085C9.57584 33.6497 9.50778 34.468 9.67064 35.2422C9.6793 35.3865 9.80742 35.5816 9.92688 35.6325C10.0463 35.6834 10.1896 35.6741 10.2743 35.6398C12.0079 35.0387 13.4171 33.8759 14.4782 32.7054C15.0457 32.0313 15.5553 31.3307 15.8347 30.6746C16.0634 30.1375 16.2925 29.5996 16.3175 29.0469C16.3239 28.9472 16.2995 28.848 16.2477 28.7628C16.1959 28.6775 16.1184 28.61 16.0272 28.57ZM2.38259 24.9461C3.11507 26.0331 4.05893 26.7884 5.13016 27.2446C5.66656 27.473 6.22785 27.6408 6.89916 27.7149C7.22198 27.782 7.49381 27.4751 7.47605 27.1854C7.44861 25.2702 6.96142 23.4403 6.02483 21.8427C5.20693 20.2957 3.93883 18.9805 2.27186 18.2707L2.15318 18.2201C1.85571 18.0934 1.57521 18.2561 1.44818 18.5544C1.19485 19.6453 1.08588 20.7264 1.2654 21.7907C1.51369 23.0249 1.8379 24.0787 2.38259 24.9461ZM16.1579 24.4661C16.5064 23.979 16.8281 23.5527 17.0572 23.0148C17.1589 22.776 16.9968 22.4961 16.7586 22.3947L16.6399 22.3442C14.9064 21.9574 13.1468 22.1257 11.7206 22.9992C10.3189 23.8128 9.22518 25.3913 9.01493 27.2062C9.00896 27.3056 9.0335 27.4044 9.08524 27.4892C9.13699 27.5741 9.21346 27.641 9.30438 27.681C9.36372 27.7062 9.42384 27.7318 9.56753 27.7237C11.3608 27.641 13.0592 26.9536 14.3422 26.0894C15.0377 25.6105 15.6989 25.0457 16.1579 24.4661ZM4.97854 15.051C5.58474 16.9306 6.76782 18.2807 8.43479 18.9906L8.49413 19.0159C8.79161 19.1426 9.13144 19.0052 9.19914 18.6816C9.41055 17.8559 9.50317 16.9778 9.57012 16.1599C9.64937 15.138 9.53831 14.1105 9.24259 13.13C8.87486 11.351 7.98896 9.63437 6.56016 8.53199L6.4407 8.48112C6.20256 8.37971 5.94819 8.4832 5.78637 8.69641C5.54932 9.08846 5.34593 9.56607 5.16788 9.98418C4.91381 10.5808 4.74441 11.1432 4.69448 11.7565C4.6453 12.864 4.71323 14.0214 4.97854 15.051ZM10.6442 19.0851C10.5425 19.3239 10.6204 19.6392 10.9171 19.7656L10.9772 19.7912C12.7701 20.2032 14.5297 20.0349 15.982 19.5962C16.806 19.3116 17.5704 19.0026 18.1821 18.5583C18.4879 18.3361 18.7929 18.1136 19.0398 17.8654C19.1751 17.7121 19.2852 17.6184 19.4212 17.4636C19.608 17.1916 19.5312 16.8759 19.2591 16.6897C18.987 16.5035 18.7488 16.4021 18.4506 16.2751C17.1412 15.7175 15.7388 15.543 14.3371 15.8627C13.4538 16.122 12.6981 16.5753 11.9507 17.1737C11.3988 17.6444 11.0347 18.3348 10.6442 19.0851ZM12.3597 10.9305L12.4784 10.981C12.7165 11.0824 12.9713 10.9801 13.1324 10.7665C13.5812 10.0419 13.9373 9.2057 14.2087 8.40372C14.5558 7.424 14.6988 6.42765 14.7234 5.37998C14.8478 3.5997 14.4715 1.67644 13.4245 0.173367C13.4245 0.173367 13.3908 0.0878081 13.2714 0.0369367C13.1793 -0.00110548 13.0777 -0.00984913 12.9803 0.0118906C12.883 0.0336303 12.7946 0.0848034 12.7271 0.158482C11.0044 1.89269 10.0986 4.18657 10.126 6.10183C10.1879 8.10298 11.0145 9.79432 12.3586 10.9309L12.3597 10.9305ZM14.5963 12.4471C14.9282 12.6597 15.2257 12.7864 15.5231 12.9131C16.8325 13.4707 18.2096 13.7047 19.4249 13.658C20.963 13.6784 22.2459 13.3081 23.3324 12.572C23.6136 12.4097 23.6212 12.0605 23.3747 11.814C22.6339 11.0759 21.8432 10.457 20.95 10.0766C20.2949 9.79768 19.5899 9.63806 18.8925 9.62317C17.9925 9.59232 17.1075 9.85093 16.2593 10.1945C15.5543 10.5288 14.9763 11.0587 14.4338 11.6741C14.247 11.946 14.2988 12.3205 14.5963 12.4471ZM18.1329 6.62009C18.1922 6.64536 18.2516 6.67063 18.3964 6.66199C20.1896 6.5793 21.8113 6.07207 23.0935 5.20753C23.8496 4.75344 24.5028 4.04468 25.0714 3.37016C25.5893 2.81466 26.0391 2.0896 26.3696 1.31367C26.3973 1.25109 26.4123 1.18359 26.4136 1.11516C26.4148 1.04674 26.4024 0.978783 26.3769 0.915327C26.3515 0.851871 26.3135 0.794205 26.2654 0.74575C26.2173 0.697294 26.1599 0.659035 26.0967 0.633239L26.0373 0.607969C25.2563 0.418408 24.4489 0.360616 23.6484 0.436967C22.5779 0.475036 21.6774 0.936983 20.7517 1.46033C19.1889 2.48754 18.0446 4.18497 17.7836 6.11895C17.7666 6.32352 17.8947 6.51868 18.1329 6.62009ZM12.725 57.6265C13.0913 57.9231 13.3971 58.1948 13.814 58.3724C14.0522 58.4738 14.3243 58.66 14.5617 58.7611C14.8599 58.8881 15.1574 59.0148 15.4802 59.0819C16.0415 59.2497 16.6033 59.4186 17.1551 59.4418C17.707 59.465 18.2854 59.4301 18.804 59.3689C19.8658 59.1865 20.8007 58.8086 21.548 58.2102C22.1939 57.695 22.7451 57.0707 23.1766 56.3656C23.363 56.0926 23.2265 55.7524 22.929 55.6257L22.6917 55.5246C22.0374 55.246 21.2976 55.0012 20.6263 54.9272C19.6317 54.7848 18.6966 54.6697 17.6601 54.7925C17.1418 54.853 16.6822 54.9403 16.1987 55.0859C15.7148 55.2322 15.2299 55.379 14.8054 55.5507C14.041 55.8597 13.3443 56.3391 12.7425 56.9291C12.4869 57.0312 12.4783 57.3808 12.725 57.6265ZM24.4484 53.8752C24.7788 53.0992 24.9901 52.2717 25.0915 51.5397C25.2348 50.5426 25.2677 49.64 25.1559 48.746C25.1294 48.312 25.0183 47.9123 24.9076 47.5118C24.7961 47.1129 24.6854 46.7124 24.5497 46.3725C24.414 46.0326 24.2167 45.6664 23.9699 45.4208C23.8766 45.3107 23.7496 45.1151 23.6554 45.0047C23.6207 44.9196 23.5613 44.8943 23.5012 44.8687C23.3232 44.7929 23.0945 44.8361 22.9327 45.0493C22.4242 45.7495 22.0005 46.4153 21.67 47.1913C21.492 47.6094 21.3472 48.1119 21.2889 48.5801C21.2295 49.0488 21.1963 49.4583 21.2567 49.977C21.3678 50.8706 21.5991 51.8155 22.1093 52.597C22.5527 53.2085 23.0799 53.7854 23.6843 54.1834L23.7437 54.2087C24.0072 54.2506 24.3213 54.1735 24.4484 53.8752ZM8.14587 51.8684C8.51135 52.1647 8.92828 52.3422 9.34444 52.5194C10.0003 52.7987 10.6459 52.9331 11.2322 53.0421C13.0765 53.3336 14.9197 52.6376 16.2949 51.39C16.5161 51.2021 16.4897 50.7681 16.2772 50.6064C15.4513 49.9032 14.5498 49.3778 13.5972 48.9722C12.8836 48.6683 12.1439 48.4235 11.4132 48.3242C9.62786 48.0569 7.77605 48.1147 6.14488 48.9712C5.86439 49.1339 5.77102 49.5178 5.95847 49.7382C6.52884 50.5453 7.35435 51.2492 8.14587 51.8684ZM17.304 49.3519C17.338 49.4367 17.3973 49.4619 17.5168 49.5128C17.6948 49.5886 17.9246 49.545 18.0856 49.3314C19.2734 47.8634 19.8666 46.1412 20.1782 44.5821C20.3306 43.7304 20.3121 42.9465 20.2347 42.1384C20.1999 41.5593 19.9958 41.0488 19.7906 40.5387C19.6973 40.4286 19.6636 40.3431 19.5449 40.2925C19.4263 40.242 19.221 40.2258 19.0856 40.3791C17.5569 41.4911 16.5139 42.9505 16.1759 44.5695C15.7532 46.2228 16.1802 48.027 17.3035 49.3508L17.304 49.3519ZM10.9231 44.5193C11.2044 44.3569 11.2713 44.033 11.1096 43.7523C10.6447 43.0625 10.1206 42.4147 9.54323 41.8162C9.19802 41.4629 8.80936 41.1551 8.38657 40.9C8.02031 40.6035 7.56971 40.3404 7.17889 40.1036L6.46448 39.7994C5.03565 39.1909 3.45411 38.9411 1.90843 39.2698C1.59394 39.3477 1.40756 39.6207 1.54401 39.961C1.92833 41.0403 2.44768 41.9672 3.04338 42.7148C3.79255 43.5981 4.76208 44.2931 5.62951 44.7319L5.80831 44.808C6.70074 45.188 7.63519 45.3048 8.56244 45.276C9.42012 45.077 10.2185 44.8528 10.9231 44.5193ZM12.1153 39.2441C11.9966 39.6874 11.9973 40.1817 11.9636 40.59C11.9822 41.374 12.0849 42.1225 12.4175 42.8275C12.4669 42.937 12.5545 43.0246 12.6639 43.0739C12.8427 43.1501 12.9867 43.1411 13.1826 43.0127C13.8459 42.5525 14.4378 41.9967 14.9392 41.3633C15.5331 40.6292 16.0084 39.8447 16.4235 39.0345C16.8389 38.2236 17.0253 37.4566 17.1513 36.6648C17.2613 36.0772 17.2859 35.5234 17.1665 34.9786C17.1578 34.8343 17.0047 34.6979 16.8852 34.647C16.7658 34.5962 16.6214 34.6059 16.4774 34.6149C14.7192 35.2758 13.42 36.3449 12.555 37.8801C12.4371 38.3238 12.2337 38.8015 12.1153 39.2441Z" fill="#D4D4D4"/>
</svg>
