<svg width="363" height="362" viewBox="0 0 363 362" fill="none" xmlns="http://www.w3.org/2000/svg">
<path opacity="0.3" d="M233.757 69.8959C269.527 61.2056 302.164 92.721 294.729 128.774L286.406 169.139C284.946 176.215 284.768 183.496 285.88 190.635L293.33 238.502C298.699 272.999 268.065 302.295 233.842 295.391L186.193 285.777C179.28 284.382 172.176 284.208 165.204 285.263L120.796 291.981C85.2906 297.352 55.8059 264.769 64.6868 229.975L75.3396 188.238C77.5951 179.401 77.8214 170.168 76.0009 161.232L68.9528 126.635C61.4013 89.5645 96.0398 57.7941 132.321 68.5135L165.071 78.1897C175.283 81.2067 186.11 81.4716 196.457 78.9578L233.757 69.8959Z" fill="#FFC7C8"/>
<path opacity="0.4" d="M273.584 100.015C309.86 106.265 327.274 148.16 306.116 178.283L282.427 212.009C278.274 217.922 275.216 224.532 273.397 231.524L261.198 278.407C252.407 312.194 212.649 326.893 183.994 306.948L144.097 279.18C138.309 275.151 131.861 272.167 125.044 270.362L81.6261 258.867C46.9129 249.677 32.8164 208.056 54.8006 179.663L81.1716 145.604C86.755 138.393 90.634 130.011 92.5172 121.088L99.8078 86.541C107.62 49.5246 152.036 34.148 181.063 58.4107L207.264 80.3118C215.434 87.1407 225.263 91.6894 235.757 93.4974L273.584 100.015Z" fill="#FFA0A2"/>
<path opacity="0.2" d="M191.25 58.4519C221.667 37.7189 263.313 55.7187 269.054 92.0794L275.481 132.789C276.608 139.926 279.006 146.803 282.561 153.094L306.394 195.269C323.571 225.664 305.218 263.873 270.757 269.465L222.775 277.251C215.814 278.38 209.105 280.72 202.95 284.163L163.755 306.093C132.417 323.626 93.3448 303.516 89.401 267.824L84.6698 225.009C83.6682 215.945 80.6279 207.224 75.7764 199.501L56.9937 169.604C36.8686 137.569 58.0966 95.6344 95.8285 92.8872L129.888 90.4076C140.507 89.6344 150.735 86.0684 159.533 80.0712L191.25 58.4519Z" fill="#FFE1E1"/>
</svg>
