<svg width="132" height="132" viewBox="0 0 132 132" fill="none" xmlns="http://www.w3.org/2000/svg">
<path d="M55.8969 98.1558V89.7714C55.8969 88.1116 55.0242 86.9297 53.7299 86.9297C52.4356 86.9297 51.3942 88.196 51.3942 89.8838V98.1558H47.7361V89.8276C47.7361 87.6044 47.1446 87.0422 45.541 87.0422C44.078 87.0422 43.3178 87.943 43.3178 89.7433V98.1558H39.6597V84.313H43.0929V86.3382C44.0218 84.5097 45.3161 83.9463 47.1446 83.9463C48.973 83.9463 49.93 84.5366 50.9994 86.1414C51.7597 84.6222 52.9966 83.9463 54.7419 83.9463C57.5273 83.9463 59.4694 85.9727 59.4694 88.5614V98.1558H55.8957H55.8969Z" fill="#FF8587"/>
<path d="M60.8774 98.1568V79.249H64.4793V86.1142C65.5207 84.6512 66.8712 83.9472 68.5872 83.9472C72.161 83.9472 74.2706 86.9014 74.2706 91.0936C74.2706 95.7649 71.7662 98.5222 68.278 98.5222C66.5901 98.5222 65.2958 97.8757 64.4231 96.4677L64.395 98.1556H60.8774V98.1568ZM70.5574 91.3478C70.5574 88.5061 69.5442 87.0712 67.4066 87.0712C65.3801 87.0712 64.34 88.5624 64.34 91.5727C64.34 93.9084 65.6906 95.54 67.4347 95.54C69.1788 95.54 70.5574 93.824 70.5574 91.3478Z" fill="#FF8587"/>
<path d="M75.6226 98.1558V84.313H79.0558V85.9727C80.2658 84.1162 81.6726 83.9463 83.1637 83.9463H83.6416V87.6887C83.3042 87.6325 82.9657 87.6044 82.6283 87.6044C80.377 87.6044 79.2807 88.7301 79.2807 90.9521V98.1546H75.6226V98.1558Z" fill="#FF8587"/>
<path d="M91.6226 91.2344C91.6226 86.8442 94.3518 83.9463 98.7408 83.9463C103.13 83.9463 105.775 86.8161 105.775 91.2344C105.775 95.6527 103.045 98.5213 98.7408 98.5213C94.4361 98.5213 91.6226 95.5391 91.6226 91.2344ZM102.09 91.2344C102.09 88.4208 100.964 87.0422 98.742 87.0422C96.52 87.0422 95.3943 88.4208 95.3943 91.2344C95.3943 94.048 96.52 95.4547 98.742 95.4547C100.964 95.4547 102.09 94.048 102.09 91.2344Z" fill="#FF8587"/>
<path d="M31.9444 92.5143H29.7273C29.979 94.2279 31.541 95.3108 33.532 95.3108C34.9425 95.3108 36.6059 95.0333 37.6888 94.0262H37.8147V95.0846C37.8147 96.8226 36.6304 98.1585 32.9014 98.1585C29.5256 98.1585 26.2256 95.488 26.2256 91.3312C26.2256 86.7968 28.9964 83.9502 32.8769 83.9502C35.699 83.9502 38.3183 85.9656 38.3183 89.2155C38.3183 91.7101 36.4287 92.5155 31.9444 92.5155V92.5143ZM32.5738 86.7699C30.936 86.7699 29.8018 88.1045 29.7273 89.6678L29.7016 90.1212H31.2135C34.4133 90.1212 35.1441 89.768 35.1441 88.811C35.1441 87.4506 34.1358 86.7699 32.575 86.7699H32.5738Z" fill="#FF8587"/>
<path d="M86.6032 82.6053C85.4567 82.6053 84.5229 81.6446 84.5229 80.4982C84.5229 79.3517 85.4567 78.418 86.6032 78.418C87.7496 78.418 88.7103 79.3517 88.7103 80.4982C88.7103 81.6446 87.7496 82.6053 86.6032 82.6053ZM89.1381 98.1569C86.3636 98.1569 84.8432 96.5826 84.8432 93.675V83.9387H85.8564C87.4563 83.9387 88.4169 84.7919 88.4169 86.6056V93.3279C88.4169 94.7689 89.0305 95.2223 90.6047 95.2223H91.2721V95.996C91.2721 97.5433 90.6585 98.1569 89.1381 98.1569Z" fill="#FF8587"/>
<path d="M63.1317 56.8597C61.8044 55.7353 59.9478 54.8308 58.211 54.5363C55.9426 54.1525 54.8279 54.7184 52.7294 54.9164C46.419 55.5104 45.8898 47.9571 48.2242 43.6927C52.414 36.0392 61.4719 32.0877 69.9969 33.926C83.4683 36.83 90.0951 52.3583 82.7533 64.1393C74.9164 76.7123 56.5305 76.7196 48.6911 64.1393C47.7537 62.636 46.023 59.1269 46.2247 57.3951C46.5021 55.0105 49.2766 56.0934 50.7909 56.2107C53.8514 56.4478 55.7336 54.7269 59.0482 55.8049C59.6141 55.9883 61.1884 56.9025 61.4792 56.9416C61.8704 56.9942 62.6098 56.5737 63.1329 56.8597H63.1317ZM62.809 60.6657C62.6685 61.0703 61.3754 61.8256 61.3521 62.0835C61.8667 66.5299 63.9555 72.7217 69.6645 69.9901C74.117 67.8585 79.4178 60.4445 78.407 55.3869C78.0966 53.8323 77.428 52.7971 77.3755 50.9955C77.3082 48.6598 78.4755 46.8876 78.2677 44.3552C77.7226 37.7063 67.9265 35.455 64.844 42.099C63.5534 44.8807 64.4334 46.5857 65.6385 49.1402C65.6751 49.6633 65.0824 50.1619 65.2535 50.7327C65.3635 51.1018 66.1457 51.2143 66.1958 51.2888C66.362 51.5418 66.1359 52.3461 67.0159 52.1688C66.9438 52.8386 67.5952 52.5404 67.9106 52.6907C68.0976 52.7799 68.1978 53.2578 68.6965 53.3605C69.5936 53.5451 70.74 52.5758 71.5785 52.2324C72.4621 51.8694 73.3739 51.6787 74.3199 51.9476C74.403 51.9708 74.5656 51.966 74.546 52.0833C71.6115 51.7203 69.2648 54.0572 67.1406 55.7292C66.9866 55.7292 65.6397 54.1904 65.4392 53.9472C65.0237 53.4412 64.0814 52.3412 64.0239 51.7203C63.964 51.0688 64.382 50.2096 63.7782 49.6938C63.6744 49.6327 63.4727 49.6767 63.3957 49.7562C63.271 49.8869 63.3126 50.5592 63.095 50.4638C62.7614 50.3184 61.8887 49.0534 61.5514 49.0057C61.126 48.9458 60.873 49.3137 61.1554 49.6511C61.247 49.7611 61.456 49.7977 61.5025 49.953C61.5379 50.0691 61.5074 50.2817 61.3912 50.3037C61.2519 50.3294 60.2448 49.3357 60.136 50.1057C60.0517 50.6997 60.9121 50.5078 60.8657 51.0309C60.7129 51.1813 59.9172 50.4858 59.7449 51.0041C59.5469 51.5968 60.3487 51.4441 60.6225 51.7191L59.8134 51.8804C59.3477 52.6785 60.7557 52.6039 61.2482 52.8765C62.7222 53.6905 63.9225 56.6238 64.9284 58.0196C66.1481 59.7099 66.7654 60.0387 68.7979 59.2479C70.1424 58.7248 71.334 57.8167 72.522 57.0235C72.5526 57.1677 72.4475 57.2215 72.3619 57.3083C71.4269 58.2518 68.3518 60.0302 67.0501 60.1719C66.7727 60.2025 66.4659 60.2172 66.2092 60.0998C66.4708 60.9273 66.934 61.7034 67.2029 62.5455C67.44 63.2886 67.6234 64.0953 67.6649 64.8751L66.6272 62.0688C66.0418 60.7134 64.8037 58.3166 63.513 57.5747C61.071 56.1716 58.8527 59.9214 57.3885 61.2756C56.979 61.6545 55.8106 61.3856 55.2814 61.2756C54.3354 61.0776 53.4492 60.6853 52.5387 60.3822C52.0584 60.4066 51.9422 60.8026 52.106 61.2133C52.5619 61.5909 52.9115 62.3035 53.338 62.6518C53.6888 62.9391 54.2571 63.1493 54.6605 63.4341C55.2227 63.8313 56.1345 64.9239 56.7871 64.9521C57.6207 64.9887 57.9935 63.8618 58.4066 63.3448C59.0336 62.5577 60.3169 62.2619 61.1651 61.7327L62.8102 60.6669L62.809 60.6657ZM61.027 62.2021L60.1592 62.6286C59.9625 63.1273 60.004 64.6575 59.7095 65.0132C59.4785 65.2918 58.178 65.8321 57.7869 65.9628C57.2662 66.1376 55.7042 66.3784 55.4121 66.5825C54.9966 66.8734 55.3131 67.3635 55.6835 67.5053C55.8876 67.5835 56.9998 67.916 57.1892 67.9416C57.7087 68.0137 58.1841 67.8585 58.6351 67.8646C59.6545 67.8781 61.5306 68.7727 61.7481 67.1728C61.8985 66.0655 61.5025 65.1342 61.2947 64.0782C61.1725 63.4585 61.1077 62.8266 61.0258 62.2008L61.027 62.2021Z" fill="#FF8587"/>
</svg>
