<svg width="118" height="37" viewBox="0 0 118 37" fill="none" xmlns="http://www.w3.org/2000/svg">
<path d="M71.7638 27.4401V19.7068C71.7638 18.1759 70.9589 17.0858 69.7651 17.0858C68.5713 17.0858 67.6108 18.2537 67.6108 19.8105V27.4401H64.2368V19.7587C64.2368 17.7081 63.6912 17.1895 62.2122 17.1895C60.8628 17.1895 60.1616 18.0204 60.1616 19.6809V27.4401H56.7876V14.6723H59.9542V16.5402C60.8109 14.8538 62.0047 14.3341 63.6912 14.3341C65.3777 14.3341 66.2603 14.8785 67.2467 16.3587C67.9479 14.9575 69.0887 14.3341 70.6985 14.3341C73.2677 14.3341 75.059 16.2031 75.059 18.5908V27.4401H71.7627H71.7638Z" fill="#FF8587"/>
<path d="M76.3578 27.4401V10.0007H79.68V16.3328C80.6405 14.9834 81.8862 14.3341 83.4689 14.3341C86.7651 14.3341 88.7109 17.0588 88.7109 20.9254C88.7109 25.234 86.401 27.7772 83.1837 27.7772C81.6269 27.7772 80.4331 27.1809 79.6282 25.8822L79.6022 27.439H76.3578V27.4401ZM85.2861 21.1599C85.2861 18.5389 84.3516 17.2155 82.3799 17.2155C80.5108 17.2155 79.5515 18.5908 79.5515 21.3673C79.5515 23.5216 80.7972 25.0266 82.4059 25.0266C84.0145 25.0266 85.2861 23.4438 85.2861 21.1599Z" fill="#FF8587"/>
<path d="M89.9574 27.4401V14.6723H93.124V16.2031C94.2401 14.4908 95.5376 14.3341 96.9129 14.3341H97.3537V17.7859C97.0426 17.734 96.7303 17.7081 96.4192 17.7081C94.3427 17.7081 93.3315 18.7463 93.3315 20.7958V27.439H89.9574V27.4401Z" fill="#FF8587"/>
<path d="M104.715 21.0562C104.715 17.0069 107.232 14.3341 111.28 14.3341C115.329 14.3341 117.768 16.981 117.768 21.0562C117.768 25.1314 115.251 27.7772 111.28 27.7772C107.31 27.7772 104.715 25.0266 104.715 21.0562ZM114.369 21.0562C114.369 18.4611 113.331 17.1895 111.282 17.1895C109.232 17.1895 108.194 18.4611 108.194 21.0562C108.194 23.6513 109.232 24.9488 111.282 24.9488C113.331 24.9488 114.369 23.6513 114.369 21.0562Z" fill="#FF8587"/>
<path d="M49.671 22.2354H47.626C47.8583 23.8159 49.299 24.8146 51.1353 24.8146C52.4363 24.8146 53.9705 24.5587 54.9693 23.6298H55.0854V24.6061C55.0854 26.2091 53.9931 27.4413 50.5537 27.4413C47.44 27.4413 44.3963 24.9781 44.3963 21.1441C44.3963 16.9618 46.9519 14.3363 50.5311 14.3363C53.1341 14.3363 55.5499 16.1953 55.5499 19.1928C55.5499 21.4936 53.8071 22.2365 49.671 22.2365V22.2354ZM50.2515 16.937C48.7409 16.937 47.6948 18.168 47.626 19.6099L47.6024 20.0281H48.9968C51.9481 20.0281 52.6223 19.7023 52.6223 18.8196C52.6223 17.5649 51.6922 16.937 50.2527 16.937H50.2515Z" fill="#FF8587"/>
<path d="M100.085 13.0963C99.0276 13.0963 98.1664 12.2102 98.1664 11.1528C98.1664 10.0954 99.0276 9.23414 100.085 9.23414C101.142 9.23414 102.029 10.0954 102.029 11.1528C102.029 12.2102 101.142 13.0963 100.085 13.0963ZM102.423 27.4401C99.8641 27.4401 98.4617 25.9882 98.4617 23.3063V14.3262H99.3963C100.872 14.3262 101.758 15.113 101.758 16.786V22.9862C101.758 24.3153 102.324 24.7335 103.776 24.7335H104.391V25.4471C104.391 26.8742 103.825 27.4401 102.423 27.4401Z" fill="#FF8587"/>
<path d="M15.609 21.5646C14.3847 20.5275 12.6723 19.6932 11.0704 19.4216C8.97815 19.0676 7.95005 19.5895 6.01447 19.7722C0.194179 20.32 -0.293946 13.3533 1.85921 9.4201C5.72362 2.3609 14.0781 -1.28368 21.9411 0.411789C34.3662 3.09027 40.4785 17.4127 33.7068 28.2788C26.4785 39.8754 9.52039 39.8822 2.28984 28.2788C1.4252 26.8922 -0.171068 23.6557 0.0149378 22.0583C0.270837 19.859 2.82982 20.8578 4.22656 20.966C7.04933 21.1847 8.78539 19.5974 11.8426 20.5917C12.3646 20.7608 13.8166 21.604 14.0849 21.6401C14.4456 21.6886 15.1276 21.3008 15.6101 21.5646H15.609ZM15.3114 25.075C15.1817 25.4482 13.989 26.1448 13.9676 26.3827C14.4422 30.4838 16.3688 36.1948 21.6344 33.6752C25.7412 31.7092 30.6303 24.871 29.6981 20.2062C29.4117 18.7722 28.7951 17.8174 28.7466 16.1558C28.6846 14.0015 29.7612 12.3669 29.5695 10.0311C29.0668 3.89855 20.0314 1.82205 17.1883 7.95009C15.9979 10.5158 16.8096 12.0884 17.9211 14.4445C17.9549 14.927 17.4082 15.3869 17.566 15.9134C17.6674 16.2538 18.3889 16.3575 18.4351 16.4263C18.5884 16.6597 18.3799 17.4014 19.1916 17.238C19.125 17.8557 19.7259 17.5807 20.0167 17.7193C20.1892 17.8016 20.2817 18.2424 20.7416 18.3371C21.569 18.5073 22.6265 17.6134 23.3998 17.2966C24.2148 16.9618 25.0558 16.7859 25.9283 17.0339C26.005 17.0553 26.1549 17.0508 26.1369 17.1591C23.4302 16.8243 21.2658 18.9797 19.3065 20.5218C19.1645 20.5218 17.9222 19.1025 17.7373 18.8782C17.354 18.4115 16.4849 17.3969 16.4319 16.8243C16.3767 16.2234 16.7622 15.4309 16.2053 14.9552C16.1095 14.8988 15.9235 14.9394 15.8525 15.0127C15.7375 15.1333 15.7758 15.7533 15.5752 15.6654C15.2674 15.5312 14.4625 14.3645 14.1514 14.3205C13.7591 14.2653 13.5257 14.6046 13.7861 14.9157C13.8707 15.0172 14.0634 15.051 14.1063 15.1942C14.139 15.3013 14.1108 15.4974 14.0037 15.5177C13.8752 15.5414 12.9463 14.6249 12.8459 15.3351C12.7682 15.883 13.5618 15.706 13.5189 16.1884C13.378 16.3271 12.6442 15.6857 12.4852 16.1636C12.3026 16.7104 13.0421 16.5695 13.2946 16.8231L12.5483 16.9719C12.1188 17.7081 13.4175 17.6393 13.8718 17.8907C15.2313 18.6415 16.3383 21.347 17.2661 22.6344C18.3912 24.1935 18.9605 24.4967 20.8352 23.7673C22.0752 23.2848 23.1743 22.4473 24.2701 21.7156C24.2983 21.8487 24.2013 21.8983 24.1224 21.9783C23.26 22.8486 20.4237 24.4888 19.2231 24.6196C18.9672 24.6478 18.6843 24.6613 18.4475 24.5531C18.6888 25.3163 19.116 26.0321 19.364 26.8088C19.5827 27.4942 19.7518 28.2382 19.7902 28.9575L18.8331 26.3692C18.2931 25.119 17.1511 22.9083 15.9607 22.2241C13.7083 20.9299 11.6623 24.3885 10.3118 25.6375C9.93411 25.987 8.8564 25.739 8.36828 25.6375C7.49575 25.4549 6.67845 25.093 5.8386 24.8135C5.39557 24.836 5.28848 25.2013 5.43954 25.58C5.86002 25.9284 6.18243 26.5856 6.57586 26.9069C6.8994 27.1718 7.4236 27.3657 7.79561 27.6284C8.31417 27.9947 9.15514 29.0025 9.75712 29.0285C10.5259 29.0623 10.8698 28.0229 11.2508 27.5461C11.8291 26.8201 13.0128 26.5473 13.7951 26.0591L15.3125 25.0761L15.3114 25.075ZM13.6678 26.492L12.8674 26.8855C12.6859 27.3454 12.7242 28.7568 12.4525 29.0848C12.2395 29.3419 11.04 29.8401 10.6793 29.9608C10.199 30.122 8.75833 30.344 8.4889 30.5323C8.10562 30.8006 8.39759 31.2527 8.73917 31.3834C8.92743 31.4556 9.95328 31.7622 10.128 31.7859C10.6071 31.8524 11.0456 31.7092 11.4616 31.7149C12.4018 31.7273 14.1322 32.5524 14.3329 31.0768C14.4715 30.0555 14.1063 29.1964 13.9146 28.2225C13.8019 27.6509 13.7422 27.0681 13.6666 26.4909L13.6678 26.492Z" fill="#FF8587"/>
</svg>
